solid cylinder
facet normal 0.999699 0.024541 0.000000
 outer loop
  vertex 2.540000 0.000000 0.000000
  vertex 2.536940 0.124632 0.000000
  vertex 2.536940 0.124632 43.180000
 endloop
endfacet
facet normal 0.999699 0.024541 -0.000000
 outer loop
  vertex 2.540000 0.000000 0.000000
  vertex 2.536940 0.124632 43.180000
  vertex 2.540000 0.000000 43.180000
 endloop
endfacet
facet normal 0.000000 0.000000 1.000000
 outer loop
  vertex 0.000000 0.000000 43.180000
  vertex 2.540000 0.000000 43.180000
  vertex 2.536940 0.124632 43.180000
 endloop
endfacet
facet normal 0.000000 0.000000 -1.000000
 outer loop
  vertex 0.000000 0.000000 0.000000
  vertex 2.536940 0.124632 0.000000
  vertex 2.540000 0.000000 0.000000
 endloop
endfacet
facet normal 0.997290 0.073565 0.000000
 outer loop
  vertex 2.536940 0.124632 0.000000
  vertex 2.527769 0.248964 0.000000
  vertex 2.527769 0.248964 43.180000
 endloop
endfacet
facet normal 0.997290 0.073565 -0.000000
 outer loop
  vertex 2.536940 0.124632 0.000000
  vertex 2.527769 0.248964 43.180000
  vertex 2.536940 0.124632 43.180000
 endloop
endfacet
facet normal 0.000000 0.000000 1.000000
 outer loop
  vertex 0.000000 0.000000 43.180000
  vertex 2.536940 0.124632 43.180000
  vertex 2.527769 0.248964 43.180000
 endloop
endfacet
facet normal 0.000000 0.000000 -1.000000
 outer loop
  vertex 0.000000 0.000000 0.000000
  vertex 2.527769 0.248964 0.000000
  vertex 2.536940 0.124632 0.000000
 endloop
endfacet
facet normal 0.992480 0.122411 0.000000
 outer loop
  vertex 2.527769 0.248964 0.000000
  vertex 2.512508 0.372695 0.000000
  vertex 2.512508 0.372695 43.180000
 endloop
endfacet
facet normal 0.992480 0.122411 -0.000000
 outer loop
  vertex 2.527769 0.248964 0.000000
  vertex 2.512508 0.372695 43.180000
  vertex 2.527769 0.248964 43.180000
 endloop
endfacet
facet normal 0.000000 0.000000 1.000000
 outer loop
  vertex 0.000000 0.000000 43.180000
  vertex 2.527769 0.248964 43.180000
  vertex 2.512508 0.372695 43.180000
 endloop
endfacet
facet normal 0.000000 0.000000 -1.000000
 outer loop
  vertex 0.000000 0.000000 0.000000
  vertex 2.512508 0.372695 0.000000
  vertex 2.527769 0.248964 0.000000
 endloop
endfacet
facet normal 0.985278 0.170962 0.000000
 outer loop
  vertex 2.512508 0.372695 0.000000
  vertex 2.491195 0.495529 0.000000
  vertex 2.491195 0.495529 43.180000
 endloop
endfacet
facet normal 0.985278 0.170962 -0.000000
 outer loop
  vertex 2.512508 0.372695 0.000000
  vertex 2.491195 0.495529 43.180000
  vertex 2.512508 0.372695 43.180000
 endloop
endfacet
facet normal 0.000000 0.000000 1.000000
 outer loop
  vertex 0.000000 0.000000 43.180000
  vertex 2.512508 0.372695 43.180000
  vertex 2.491195 0.495529 43.180000
 endloop
endfacet
facet normal 0.000000 0.000000 -1.000000
 outer loop
  vertex 0.000000 0.000000 0.000000
  vertex 2.491195 0.495529 0.000000
  vertex 2.512508 0.372695 0.000000
 endloop
endfacet
facet normal 0.975702 0.219101 0.000000
 outer loop
  vertex 2.491195 0.495529 0.000000
  vertex 2.463879 0.617170 0.000000
  vertex 2.463879 0.617170 43.180000
 endloop
endfacet
facet normal 0.975702 0.219101 -0.000000
 outer loop
  vertex 2.491195 0.495529 0.000000
  vertex 2.463879 0.617170 43.180000
  vertex 2.491195 0.495529 43.180000
 endloop
endfacet
facet normal 0.000000 0.000000 1.000000
 outer loop
  vertex 0.000000 0.000000 43.180000
  vertex 2.491195 0.495529 43.180000
  vertex 2.463879 0.617170 43.180000
 endloop
endfacet
facet normal 0.000000 0.000000 -1.000000
 outer loop
  vertex 0.000000 0.000000 0.000000
  vertex 2.463879 0.617170 0.000000
  vertex 2.491195 0.495529 0.000000
 endloop
endfacet
facet normal 0.963776 0.266713 0.000000
 outer loop
  vertex 2.463879 0.617170 0.000000
  vertex 2.430628 0.737323 0.000000
  vertex 2.430628 0.737323 43.180000
 endloop
endfacet
facet normal 0.963776 0.266713 -0.000000
 outer loop
  vertex 2.463879 0.617170 0.000000
  vertex 2.430628 0.737323 43.180000
  vertex 2.463879 0.617170 43.180000
 endloop
endfacet
facet normal 0.000000 0.000000 1.000000
 outer loop
  vertex 0.000000 0.000000 43.180000
  vertex 2.463879 0.617170 43.180000
  vertex 2.430628 0.737323 43.180000
 endloop
endfacet
facet normal 0.000000 0.000000 -1.000000
 outer loop
  vertex 0.000000 0.000000 0.000000
  vertex 2.430628 0.737323 0.000000
  vertex 2.463879 0.617170 0.000000
 endloop
endfacet
facet normal 0.949528 0.313682 0.000000
 outer loop
  vertex 2.430628 0.737323 0.000000
  vertex 2.391522 0.855700 0.000000
  vertex 2.391522 0.855700 43.180000
 endloop
endfacet
facet normal 0.949528 0.313682 -0.000000
 outer loop
  vertex 2.430628 0.737323 0.000000
  vertex 2.391522 0.855700 43.180000
  vertex 2.430628 0.737323 43.180000
 endloop
endfacet
facet normal 0.000000 0.000000 1.000000
 outer loop
  vertex 0.000000 0.000000 43.180000
  vertex 2.430628 0.737323 43.180000
  vertex 2.391522 0.855700 43.180000
 endloop
endfacet
facet normal 0.000000 0.000000 -1.000000
 outer loop
  vertex 0.000000 0.000000 0.000000
  vertex 2.391522 0.855700 0.000000
  vertex 2.430628 0.737323 0.000000
 endloop
endfacet
facet normal 0.932993 0.359895 0.000000
 outer loop
  vertex 2.391522 0.855700 0.000000
  vertex 2.346654 0.972016 0.000000
  vertex 2.346654 0.972016 43.180000
 endloop
endfacet
facet normal 0.932993 0.359895 -0.000000
 outer loop
  vertex 2.391522 0.855700 0.000000
  vertex 2.346654 0.972016 43.180000
  vertex 2.391522 0.855700 43.180000
 endloop
endfacet
facet normal 0.000000 0.000000 1.000000
 outer loop
  vertex 0.000000 0.000000 43.180000
  vertex 2.391522 0.855700 43.180000
  vertex 2.346654 0.972016 43.180000
 endloop
endfacet
facet normal 0.000000 0.000000 -1.000000
 outer loop
  vertex 0.000000 0.000000 0.000000
  vertex 2.346654 0.972016 0.000000
  vertex 2.391522 0.855700 0.000000
 endloop
endfacet
facet normal 0.914210 0.405241 0.000000
 outer loop
  vertex 2.346654 0.972016 0.000000
  vertex 2.296133 1.085990 0.000000
  vertex 2.296133 1.085990 43.180000
 endloop
endfacet
facet normal 0.914210 0.405241 -0.000000
 outer loop
  vertex 2.346654 0.972016 0.000000
  vertex 2.296133 1.085990 43.180000
  vertex 2.346654 0.972016 43.180000
 endloop
endfacet
facet normal 0.000000 0.000000 1.000000
 outer loop
  vertex 0.000000 0.000000 43.180000
  vertex 2.346654 0.972016 43.180000
  vertex 2.296133 1.085990 43.180000
 endloop
endfacet
facet normal 0.000000 0.000000 -1.000000
 outer loop
  vertex 0.000000 0.000000 0.000000
  vertex 2.296133 1.085990 0.000000
  vertex 2.346654 0.972016 0.000000
 endloop
endfacet
facet normal 0.893224 0.449611 0.000000
 outer loop
  vertex 2.296133 1.085990 0.000000
  vertex 2.240080 1.197348 0.000000
  vertex 2.240080 1.197348 43.180000
 endloop
endfacet
facet normal 0.893224 0.449611 -0.000000
 outer loop
  vertex 2.296133 1.085990 0.000000
  vertex 2.240080 1.197348 43.180000
  vertex 2.296133 1.085990 43.180000
 endloop
endfacet
facet normal 0.000000 0.000000 1.000000
 outer loop
  vertex 0.000000 0.000000 43.180000
  vertex 2.296133 1.085990 43.180000
  vertex 2.240080 1.197348 43.180000
 endloop
endfacet
facet normal 0.000000 0.000000 -1.000000
 outer loop
  vertex 0.000000 0.000000 0.000000
  vertex 2.240080 1.197348 0.000000
  vertex 2.296133 1.085990 0.000000
 endloop
endfacet
facet normal 0.870087 0.492898 0.000000
 outer loop
  vertex 2.240080 1.197348 0.000000
  vertex 2.178631 1.305821 0.000000
  vertex 2.178631 1.305821 43.180000
 endloop
endfacet
facet normal 0.870087 0.492898 -0.000000
 outer loop
  vertex 2.240080 1.197348 0.000000
  vertex 2.178631 1.305821 43.180000
  vertex 2.240080 1.197348 43.180000
 endloop
endfacet
facet normal 0.000000 0.000000 1.000000
 outer loop
  vertex 0.000000 0.000000 43.180000
  vertex 2.240080 1.197348 43.180000
  vertex 2.178631 1.305821 43.180000
 endloop
endfacet
facet normal 0.000000 0.000000 -1.000000
 outer loop
  vertex 0.000000 0.000000 0.000000
  vertex 2.178631 1.305821 0.000000
  vertex 2.240080 1.197348 0.000000
 endloop
endfacet
facet normal 0.844854 0.534998 0.000000
 outer loop
  vertex 2.178631 1.305821 0.000000
  vertex 2.111933 1.411148 0.000000
  vertex 2.111933 1.411148 43.180000
 endloop
endfacet
facet normal 0.844854 0.534998 -0.000000
 outer loop
  vertex 2.178631 1.305821 0.000000
  vertex 2.111933 1.411148 43.180000
  vertex 2.178631 1.305821 43.180000
 endloop
endfacet
facet normal 0.000000 0.000000 1.000000
 outer loop
  vertex 0.000000 0.000000 43.180000
  vertex 2.178631 1.305821 43.180000
  vertex 2.111933 1.411148 43.180000
 endloop
endfacet
facet normal 0.000000 0.000000 -1.000000
 outer loop
  vertex 0.000000 0.000000 0.000000
  vertex 2.111933 1.411148 0.000000
  vertex 2.178631 1.305821 0.000000
 endloop
endfacet
facet normal 0.817585 0.575808 0.000000
 outer loop
  vertex 2.111933 1.411148 0.000000
  vertex 2.040147 1.513076 0.000000
  vertex 2.040147 1.513076 43.180000
 endloop
endfacet
facet normal 0.817585 0.575808 -0.000000
 outer loop
  vertex 2.111933 1.411148 0.000000
  vertex 2.040147 1.513076 43.180000
  vertex 2.111933 1.411148 43.180000
 endloop
endfacet
facet normal 0.000000 0.000000 1.000000
 outer loop
  vertex 0.000000 0.000000 43.180000
  vertex 2.111933 1.411148 43.180000
  vertex 2.040147 1.513076 43.180000
 endloop
endfacet
facet normal 0.000000 0.000000 -1.000000
 outer loop
  vertex 0.000000 0.000000 0.000000
  vertex 2.040147 1.513076 0.000000
  vertex 2.111933 1.411148 0.000000
 endloop
endfacet
facet normal 0.788346 0.615232 0.000000
 outer loop
  vertex 2.040147 1.513076 0.000000
  vertex 1.963447 1.611359 0.000000
  vertex 1.963447 1.611359 43.180000
 endloop
endfacet
facet normal 0.788346 0.615232 -0.000000
 outer loop
  vertex 2.040147 1.513076 0.000000
  vertex 1.963447 1.611359 43.180000
  vertex 2.040147 1.513076 43.180000
 endloop
endfacet
facet normal 0.000000 0.000000 1.000000
 outer loop
  vertex 0.000000 0.000000 43.180000
  vertex 2.040147 1.513076 43.180000
  vertex 1.963447 1.611359 43.180000
 endloop
endfacet
facet normal 0.000000 0.000000 -1.000000
 outer loop
  vertex 0.000000 0.000000 0.000000
  vertex 1.963447 1.611359 0.000000
  vertex 2.040147 1.513076 0.000000
 endloop
endfacet
facet normal 0.757209 0.653173 0.000000
 outer loop
  vertex 1.963447 1.611359 0.000000
  vertex 1.882016 1.705760 0.000000
  vertex 1.882016 1.705760 43.180000
 endloop
endfacet
facet normal 0.757209 0.653173 -0.000000
 outer loop
  vertex 1.963447 1.611359 0.000000
  vertex 1.882016 1.705760 43.180000
  vertex 1.963447 1.611359 43.180000
 endloop
endfacet
facet normal 0.000000 0.000000 1.000000
 outer loop
  vertex 0.000000 0.000000 43.180000
  vertex 1.963447 1.611359 43.180000
  vertex 1.882016 1.705760 43.180000
 endloop
endfacet
facet normal 0.000000 0.000000 -1.000000
 outer loop
  vertex 0.000000 0.000000 0.000000
  vertex 1.882016 1.705760 0.000000
  vertex 1.963447 1.611359 0.000000
 endloop
endfacet
facet normal 0.724247 0.689541 0.000000
 outer loop
  vertex 1.882016 1.705760 0.000000
  vertex 1.796051 1.796051 0.000000
  vertex 1.796051 1.796051 43.180000
 endloop
endfacet
facet normal 0.724247 0.689541 -0.000000
 outer loop
  vertex 1.882016 1.705760 0.000000
  vertex 1.796051 1.796051 43.180000
  vertex 1.882016 1.705760 43.180000
 endloop
endfacet
facet normal 0.000000 0.000000 1.000000
 outer loop
  vertex 0.000000 0.000000 43.180000
  vertex 1.882016 1.705760 43.180000
  vertex 1.796051 1.796051 43.180000
 endloop
endfacet
facet normal 0.000000 0.000000 -1.000000
 outer loop
  vertex 0.000000 0.000000 0.000000
  vertex 1.796051 1.796051 0.000000
  vertex 1.882016 1.705760 0.000000
 endloop
endfacet
facet normal 0.689541 0.724247 0.000000
 outer loop
  vertex 1.796051 1.796051 0.000000
  vertex 1.705760 1.882016 0.000000
  vertex 1.705760 1.882016 43.180000
 endloop
endfacet
facet normal 0.689541 0.724247 -0.000000
 outer loop
  vertex 1.796051 1.796051 0.000000
  vertex 1.705760 1.882016 43.180000
  vertex 1.796051 1.796051 43.180000
 endloop
endfacet
facet normal 0.000000 0.000000 1.000000
 outer loop
  vertex 0.000000 0.000000 43.180000
  vertex 1.796051 1.796051 43.180000
  vertex 1.705760 1.882016 43.180000
 endloop
endfacet
facet normal 0.000000 0.000000 -1.000000
 outer loop
  vertex 0.000000 0.000000 0.000000
  vertex 1.705760 1.882016 0.000000
  vertex 1.796051 1.796051 0.000000
 endloop
endfacet
facet normal 0.653173 0.757209 0.000000
 outer loop
  vertex 1.705760 1.882016 0.000000
  vertex 1.611359 1.963447 0.000000
  vertex 1.611359 1.963447 43.180000
 endloop
endfacet
facet normal 0.653173 0.757209 -0.000000
 outer loop
  vertex 1.705760 1.882016 0.000000
  vertex 1.611359 1.963447 43.180000
  vertex 1.705760 1.882016 43.180000
 endloop
endfacet
facet normal 0.000000 0.000000 1.000000
 outer loop
  vertex 0.000000 0.000000 43.180000
  vertex 1.705760 1.882016 43.180000
  vertex 1.611359 1.963447 43.180000
 endloop
endfacet
facet normal 0.000000 0.000000 -1.000000
 outer loop
  vertex 0.000000 0.000000 0.000000
  vertex 1.611359 1.963447 0.000000
  vertex 1.705760 1.882016 0.000000
 endloop
endfacet
facet normal 0.615232 0.788346 0.000000
 outer loop
  vertex 1.611359 1.963447 0.000000
  vertex 1.513076 2.040147 0.000000
  vertex 1.513076 2.040147 43.180000
 endloop
endfacet
facet normal 0.615232 0.788346 -0.000000
 outer loop
  vertex 1.611359 1.963447 0.000000
  vertex 1.513076 2.040147 43.180000
  vertex 1.611359 1.963447 43.180000
 endloop
endfacet
facet normal 0.000000 0.000000 1.000000
 outer loop
  vertex 0.000000 0.000000 43.180000
  vertex 1.611359 1.963447 43.180000
  vertex 1.513076 2.040147 43.180000
 endloop
endfacet
facet normal 0.000000 0.000000 -1.000000
 outer loop
  vertex 0.000000 0.000000 0.000000
  vertex 1.513076 2.040147 0.000000
  vertex 1.611359 1.963447 0.000000
 endloop
endfacet
facet normal 0.575808 0.817585 0.000000
 outer loop
  vertex 1.513076 2.040147 0.000000
  vertex 1.411148 2.111933 0.000000
  vertex 1.411148 2.111933 43.180000
 endloop
endfacet
facet normal 0.575808 0.817585 -0.000000
 outer loop
  vertex 1.513076 2.040147 0.000000
  vertex 1.411148 2.111933 43.180000
  vertex 1.513076 2.040147 43.180000
 endloop
endfacet
facet normal 0.000000 0.000000 1.000000
 outer loop
  vertex 0.000000 0.000000 43.180000
  vertex 1.513076 2.040147 43.180000
  vertex 1.411148 2.111933 43.180000
 endloop
endfacet
facet normal 0.000000 0.000000 -1.000000
 outer loop
  vertex 0.000000 0.000000 0.000000
  vertex 1.411148 2.111933 0.000000
  vertex 1.513076 2.040147 0.000000
 endloop
endfacet
facet normal 0.534998 0.844854 0.000000
 outer loop
  vertex 1.411148 2.111933 0.000000
  vertex 1.305821 2.178631 0.000000
  vertex 1.305821 2.178631 43.180000
 endloop
endfacet
facet normal 0.534998 0.844854 -0.000000
 outer loop
  vertex 1.411148 2.111933 0.000000
  vertex 1.305821 2.178631 43.180000
  vertex 1.411148 2.111933 43.180000
 endloop
endfacet
facet normal 0.000000 0.000000 1.000000
 outer loop
  vertex 0.000000 0.000000 43.180000
  vertex 1.411148 2.111933 43.180000
  vertex 1.305821 2.178631 43.180000
 endloop
endfacet
facet normal 0.000000 0.000000 -1.000000
 outer loop
  vertex 0.000000 0.000000 0.000000
  vertex 1.305821 2.178631 0.000000
  vertex 1.411148 2.111933 0.000000
 endloop
endfacet
facet normal 0.492898 0.870087 0.000000
 outer loop
  vertex 1.305821 2.178631 0.000000
  vertex 1.197348 2.240080 0.000000
  vertex 1.197348 2.240080 43.180000
 endloop
endfacet
facet normal 0.492898 0.870087 -0.000000
 outer loop
  vertex 1.305821 2.178631 0.000000
  vertex 1.197348 2.240080 43.180000
  vertex 1.305821 2.178631 43.180000
 endloop
endfacet
facet normal 0.000000 0.000000 1.000000
 outer loop
  vertex 0.000000 0.000000 43.180000
  vertex 1.305821 2.178631 43.180000
  vertex 1.197348 2.240080 43.180000
 endloop
endfacet
facet normal 0.000000 0.000000 -1.000000
 outer loop
  vertex 0.000000 0.000000 0.000000
  vertex 1.197348 2.240080 0.000000
  vertex 1.305821 2.178631 0.000000
 endloop
endfacet
facet normal 0.449611 0.893224 0.000000
 outer loop
  vertex 1.197348 2.240080 0.000000
  vertex 1.085990 2.296133 0.000000
  vertex 1.085990 2.296133 43.180000
 endloop
endfacet
facet normal 0.449611 0.893224 -0.000000
 outer loop
  vertex 1.197348 2.240080 0.000000
  vertex 1.085990 2.296133 43.180000
  vertex 1.197348 2.240080 43.180000
 endloop
endfacet
facet normal 0.000000 0.000000 1.000000
 outer loop
  vertex 0.000000 0.000000 43.180000
  vertex 1.197348 2.240080 43.180000
  vertex 1.085990 2.296133 43.180000
 endloop
endfacet
facet normal 0.000000 0.000000 -1.000000
 outer loop
  vertex 0.000000 0.000000 0.000000
  vertex 1.085990 2.296133 0.000000
  vertex 1.197348 2.240080 0.000000
 endloop
endfacet
facet normal 0.405241 0.914210 0.000000
 outer loop
  vertex 1.085990 2.296133 0.000000
  vertex 0.972016 2.346654 0.000000
  vertex 0.972016 2.346654 43.180000
 endloop
endfacet
facet normal 0.405241 0.914210 -0.000000
 outer loop
  vertex 1.085990 2.296133 0.000000
  vertex 0.972016 2.346654 43.180000
  vertex 1.085990 2.296133 43.180000
 endloop
endfacet
facet normal 0.000000 0.000000 1.000000
 outer loop
  vertex 0.000000 0.000000 43.180000
  vertex 1.085990 2.296133 43.180000
  vertex 0.972016 2.346654 43.180000
 endloop
endfacet
facet normal 0.000000 0.000000 -1.000000
 outer loop
  vertex 0.000000 0.000000 0.000000
  vertex 0.972016 2.346654 0.000000
  vertex 1.085990 2.296133 0.000000
 endloop
endfacet
facet normal 0.359895 0.932993 0.000000
 outer loop
  vertex 0.972016 2.346654 0.000000
  vertex 0.855700 2.391522 0.000000
  vertex 0.855700 2.391522 43.180000
 endloop
endfacet
facet normal 0.359895 0.932993 -0.000000
 outer loop
  vertex 0.972016 2.346654 0.000000
  vertex 0.855700 2.391522 43.180000
  vertex 0.972016 2.346654 43.180000
 endloop
endfacet
facet normal 0.000000 0.000000 1.000000
 outer loop
  vertex 0.000000 0.000000 43.180000
  vertex 0.972016 2.346654 43.180000
  vertex 0.855700 2.391522 43.180000
 endloop
endfacet
facet normal 0.000000 0.000000 -1.000000
 outer loop
  vertex 0.000000 0.000000 0.000000
  vertex 0.855700 2.391522 0.000000
  vertex 0.972016 2.346654 0.000000
 endloop
endfacet
facet normal 0.313682 0.949528 0.000000
 outer loop
  vertex 0.855700 2.391522 0.000000
  vertex 0.737323 2.430628 0.000000
  vertex 0.737323 2.430628 43.180000
 endloop
endfacet
facet normal 0.313682 0.949528 -0.000000
 outer loop
  vertex 0.855700 2.391522 0.000000
  vertex 0.737323 2.430628 43.180000
  vertex 0.855700 2.391522 43.180000
 endloop
endfacet
facet normal 0.000000 0.000000 1.000000
 outer loop
  vertex 0.000000 0.000000 43.180000
  vertex 0.855700 2.391522 43.180000
  vertex 0.737323 2.430628 43.180000
 endloop
endfacet
facet normal 0.000000 0.000000 -1.000000
 outer loop
  vertex 0.000000 0.000000 0.000000
  vertex 0.737323 2.430628 0.000000
  vertex 0.855700 2.391522 0.000000
 endloop
endfacet
facet normal 0.266713 0.963776 0.000000
 outer loop
  vertex 0.737323 2.430628 0.000000
  vertex 0.617170 2.463879 0.000000
  vertex 0.617170 2.463879 43.180000
 endloop
endfacet
facet normal 0.266713 0.963776 -0.000000
 outer loop
  vertex 0.737323 2.430628 0.000000
  vertex 0.617170 2.463879 43.180000
  vertex 0.737323 2.430628 43.180000
 endloop
endfacet
facet normal 0.000000 0.000000 1.000000
 outer loop
  vertex 0.000000 0.000000 43.180000
  vertex 0.737323 2.430628 43.180000
  vertex 0.617170 2.463879 43.180000
 endloop
endfacet
facet normal 0.000000 0.000000 -1.000000
 outer loop
  vertex 0.000000 0.000000 0.000000
  vertex 0.617170 2.463879 0.000000
  vertex 0.737323 2.430628 0.000000
 endloop
endfacet
facet normal 0.219101 0.975702 0.000000
 outer loop
  vertex 0.617170 2.463879 0.000000
  vertex 0.495529 2.491195 0.000000
  vertex 0.495529 2.491195 43.180000
 endloop
endfacet
facet normal 0.219101 0.975702 -0.000000
 outer loop
  vertex 0.617170 2.463879 0.000000
  vertex 0.495529 2.491195 43.180000
  vertex 0.617170 2.463879 43.180000
 endloop
endfacet
facet normal 0.000000 0.000000 1.000000
 outer loop
  vertex 0.000000 0.000000 43.180000
  vertex 0.617170 2.463879 43.180000
  vertex 0.495529 2.491195 43.180000
 endloop
endfacet
facet normal 0.000000 0.000000 -1.000000
 outer loop
  vertex 0.000000 0.000000 0.000000
  vertex 0.495529 2.491195 0.000000
  vertex 0.617170 2.463879 0.000000
 endloop
endfacet
facet normal 0.170962 0.985278 0.000000
 outer loop
  vertex 0.495529 2.491195 0.000000
  vertex 0.372695 2.512508 0.000000
  vertex 0.372695 2.512508 43.180000
 endloop
endfacet
facet normal 0.170962 0.985278 -0.000000
 outer loop
  vertex 0.495529 2.491195 0.000000
  vertex 0.372695 2.512508 43.180000
  vertex 0.495529 2.491195 43.180000
 endloop
endfacet
facet normal 0.000000 0.000000 1.000000
 outer loop
  vertex 0.000000 0.000000 43.180000
  vertex 0.495529 2.491195 43.180000
  vertex 0.372695 2.512508 43.180000
 endloop
endfacet
facet normal 0.000000 0.000000 -1.000000
 outer loop
  vertex 0.000000 0.000000 0.000000
  vertex 0.372695 2.512508 0.000000
  vertex 0.495529 2.491195 0.000000
 endloop
endfacet
facet normal 0.122411 0.992480 0.000000
 outer loop
  vertex 0.372695 2.512508 0.000000
  vertex 0.248964 2.527769 0.000000
  vertex 0.248964 2.527769 43.180000
 endloop
endfacet
facet normal 0.122411 0.992480 -0.000000
 outer loop
  vertex 0.372695 2.512508 0.000000
  vertex 0.248964 2.527769 43.180000
  vertex 0.372695 2.512508 43.180000
 endloop
endfacet
facet normal 0.000000 0.000000 1.000000
 outer loop
  vertex 0.000000 0.000000 43.180000
  vertex 0.372695 2.512508 43.180000
  vertex 0.248964 2.527769 43.180000
 endloop
endfacet
facet normal 0.000000 0.000000 -1.000000
 outer loop
  vertex 0.000000 0.000000 0.000000
  vertex 0.248964 2.527769 0.000000
  vertex 0.372695 2.512508 0.000000
 endloop
endfacet
facet normal 0.073565 0.997290 0.000000
 outer loop
  vertex 0.248964 2.527769 0.000000
  vertex 0.124632 2.536940 0.000000
  vertex 0.124632 2.536940 43.180000
 endloop
endfacet
facet normal 0.073565 0.997290 -0.000000
 outer loop
  vertex 0.248964 2.527769 0.000000
  vertex 0.124632 2.536940 43.180000
  vertex 0.248964 2.527769 43.180000
 endloop
endfacet
facet normal 0.000000 0.000000 1.000000
 outer loop
  vertex 0.000000 0.000000 43.180000
  vertex 0.248964 2.527769 43.180000
  vertex 0.124632 2.536940 43.180000
 endloop
endfacet
facet normal 0.000000 0.000000 -1.000000
 outer loop
  vertex 0.000000 0.000000 0.000000
  vertex 0.124632 2.536940 0.000000
  vertex 0.248964 2.527769 0.000000
 endloop
endfacet
facet normal 0.024541 0.999699 0.000000
 outer loop
  vertex 0.124632 2.536940 0.000000
  vertex 0.000000 2.540000 0.000000
  vertex 0.000000 2.540000 43.180000
 endloop
endfacet
facet normal 0.024541 0.999699 -0.000000
 outer loop
  vertex 0.124632 2.536940 0.000000
  vertex 0.000000 2.540000 43.180000
  vertex 0.124632 2.536940 43.180000
 endloop
endfacet
facet normal 0.000000 0.000000 1.000000
 outer loop
  vertex 0.000000 0.000000 43.180000
  vertex 0.124632 2.536940 43.180000
  vertex 0.000000 2.540000 43.180000
 endloop
endfacet
facet normal 0.000000 0.000000 -1.000000
 outer loop
  vertex 0.000000 0.000000 0.000000
  vertex 0.000000 2.540000 0.000000
  vertex 0.124632 2.536940 0.000000
 endloop
endfacet
facet normal -0.024541 0.999699 0.000000
 outer loop
  vertex 0.000000 2.540000 0.000000
  vertex -0.124632 2.536940 0.000000
  vertex -0.124632 2.536940 43.180000
 endloop
endfacet
facet normal -0.024541 0.999699 0.000000
 outer loop
  vertex 0.000000 2.540000 0.000000
  vertex -0.124632 2.536940 43.180000
  vertex 0.000000 2.540000 43.180000
 endloop
endfacet
facet normal 0.000000 -0.000000 1.000000
 outer loop
  vertex 0.000000 0.000000 43.180000
  vertex 0.000000 2.540000 43.180000
  vertex -0.124632 2.536940 43.180000
 endloop
endfacet
facet normal 0.000000 0.000000 -1.000000
 outer loop
  vertex 0.000000 0.000000 0.000000
  vertex -0.124632 2.536940 0.000000
  vertex 0.000000 2.540000 0.000000
 endloop
endfacet
facet normal -0.073565 0.997290 0.000000
 outer loop
  vertex -0.124632 2.536940 0.000000
  vertex -0.248964 2.527769 0.000000
  vertex -0.248964 2.527769 43.180000
 endloop
endfacet
facet normal -0.073565 0.997290 0.000000
 outer loop
  vertex -0.124632 2.536940 0.000000
  vertex -0.248964 2.527769 43.180000
  vertex -0.124632 2.536940 43.180000
 endloop
endfacet
facet normal 0.000000 0.000000 1.000000
 outer loop
  vertex 0.000000 0.000000 43.180000
  vertex -0.124632 2.536940 43.180000
  vertex -0.248964 2.527769 43.180000
 endloop
endfacet
facet normal 0.000000 0.000000 -1.000000
 outer loop
  vertex 0.000000 0.000000 0.000000
  vertex -0.248964 2.527769 0.000000
  vertex -0.124632 2.536940 0.000000
 endloop
endfacet
facet normal -0.122411 0.992480 0.000000
 outer loop
  vertex -0.248964 2.527769 0.000000
  vertex -0.372695 2.512508 0.000000
  vertex -0.372695 2.512508 43.180000
 endloop
endfacet
facet normal -0.122411 0.992480 0.000000
 outer loop
  vertex -0.248964 2.527769 0.000000
  vertex -0.372695 2.512508 43.180000
  vertex -0.248964 2.527769 43.180000
 endloop
endfacet
facet normal 0.000000 0.000000 1.000000
 outer loop
  vertex 0.000000 0.000000 43.180000
  vertex -0.248964 2.527769 43.180000
  vertex -0.372695 2.512508 43.180000
 endloop
endfacet
facet normal 0.000000 0.000000 -1.000000
 outer loop
  vertex 0.000000 0.000000 0.000000
  vertex -0.372695 2.512508 0.000000
  vertex -0.248964 2.527769 0.000000
 endloop
endfacet
facet normal -0.170962 0.985278 0.000000
 outer loop
  vertex -0.372695 2.512508 0.000000
  vertex -0.495529 2.491195 0.000000
  vertex -0.495529 2.491195 43.180000
 endloop
endfacet
facet normal -0.170962 0.985278 0.000000
 outer loop
  vertex -0.372695 2.512508 0.000000
  vertex -0.495529 2.491195 43.180000
  vertex -0.372695 2.512508 43.180000
 endloop
endfacet
facet normal 0.000000 0.000000 1.000000
 outer loop
  vertex 0.000000 0.000000 43.180000
  vertex -0.372695 2.512508 43.180000
  vertex -0.495529 2.491195 43.180000
 endloop
endfacet
facet normal 0.000000 0.000000 -1.000000
 outer loop
  vertex 0.000000 0.000000 0.000000
  vertex -0.495529 2.491195 0.000000
  vertex -0.372695 2.512508 0.000000
 endloop
endfacet
facet normal -0.219101 0.975702 0.000000
 outer loop
  vertex -0.495529 2.491195 0.000000
  vertex -0.617170 2.463879 0.000000
  vertex -0.617170 2.463879 43.180000
 endloop
endfacet
facet normal -0.219101 0.975702 0.000000
 outer loop
  vertex -0.495529 2.491195 0.000000
  vertex -0.617170 2.463879 43.180000
  vertex -0.495529 2.491195 43.180000
 endloop
endfacet
facet normal 0.000000 0.000000 1.000000
 outer loop
  vertex 0.000000 0.000000 43.180000
  vertex -0.495529 2.491195 43.180000
  vertex -0.617170 2.463879 43.180000
 endloop
endfacet
facet normal 0.000000 0.000000 -1.000000
 outer loop
  vertex 0.000000 0.000000 0.000000
  vertex -0.617170 2.463879 0.000000
  vertex -0.495529 2.491195 0.000000
 endloop
endfacet
facet normal -0.266713 0.963776 0.000000
 outer loop
  vertex -0.617170 2.463879 0.000000
  vertex -0.737323 2.430628 0.000000
  vertex -0.737323 2.430628 43.180000
 endloop
endfacet
facet normal -0.266713 0.963776 0.000000
 outer loop
  vertex -0.617170 2.463879 0.000000
  vertex -0.737323 2.430628 43.180000
  vertex -0.617170 2.463879 43.180000
 endloop
endfacet
facet normal 0.000000 0.000000 1.000000
 outer loop
  vertex 0.000000 0.000000 43.180000
  vertex -0.617170 2.463879 43.180000
  vertex -0.737323 2.430628 43.180000
 endloop
endfacet
facet normal 0.000000 0.000000 -1.000000
 outer loop
  vertex 0.000000 0.000000 0.000000
  vertex -0.737323 2.430628 0.000000
  vertex -0.617170 2.463879 0.000000
 endloop
endfacet
facet normal -0.313682 0.949528 0.000000
 outer loop
  vertex -0.737323 2.430628 0.000000
  vertex -0.855700 2.391522 0.000000
  vertex -0.855700 2.391522 43.180000
 endloop
endfacet
facet normal -0.313682 0.949528 0.000000
 outer loop
  vertex -0.737323 2.430628 0.000000
  vertex -0.855700 2.391522 43.180000
  vertex -0.737323 2.430628 43.180000
 endloop
endfacet
facet normal 0.000000 0.000000 1.000000
 outer loop
  vertex 0.000000 0.000000 43.180000
  vertex -0.737323 2.430628 43.180000
  vertex -0.855700 2.391522 43.180000
 endloop
endfacet
facet normal 0.000000 0.000000 -1.000000
 outer loop
  vertex 0.000000 0.000000 0.000000
  vertex -0.855700 2.391522 0.000000
  vertex -0.737323 2.430628 0.000000
 endloop
endfacet
facet normal -0.359895 0.932993 0.000000
 outer loop
  vertex -0.855700 2.391522 0.000000
  vertex -0.972016 2.346654 0.000000
  vertex -0.972016 2.346654 43.180000
 endloop
endfacet
facet normal -0.359895 0.932993 0.000000
 outer loop
  vertex -0.855700 2.391522 0.000000
  vertex -0.972016 2.346654 43.180000
  vertex -0.855700 2.391522 43.180000
 endloop
endfacet
facet normal 0.000000 0.000000 1.000000
 outer loop
  vertex 0.000000 0.000000 43.180000
  vertex -0.855700 2.391522 43.180000
  vertex -0.972016 2.346654 43.180000
 endloop
endfacet
facet normal 0.000000 0.000000 -1.000000
 outer loop
  vertex 0.000000 0.000000 0.000000
  vertex -0.972016 2.346654 0.000000
  vertex -0.855700 2.391522 0.000000
 endloop
endfacet
facet normal -0.405241 0.914210 0.000000
 outer loop
  vertex -0.972016 2.346654 0.000000
  vertex -1.085990 2.296133 0.000000
  vertex -1.085990 2.296133 43.180000
 endloop
endfacet
facet normal -0.405241 0.914210 0.000000
 outer loop
  vertex -0.972016 2.346654 0.000000
  vertex -1.085990 2.296133 43.180000
  vertex -0.972016 2.346654 43.180000
 endloop
endfacet
facet normal 0.000000 0.000000 1.000000
 outer loop
  vertex 0.000000 0.000000 43.180000
  vertex -0.972016 2.346654 43.180000
  vertex -1.085990 2.296133 43.180000
 endloop
endfacet
facet normal 0.000000 0.000000 -1.000000
 outer loop
  vertex 0.000000 0.000000 0.000000
  vertex -1.085990 2.296133 0.000000
  vertex -0.972016 2.346654 0.000000
 endloop
endfacet
facet normal -0.449611 0.893224 0.000000
 outer loop
  vertex -1.085990 2.296133 0.000000
  vertex -1.197348 2.240080 0.000000
  vertex -1.197348 2.240080 43.180000
 endloop
endfacet
facet normal -0.449611 0.893224 0.000000
 outer loop
  vertex -1.085990 2.296133 0.000000
  vertex -1.197348 2.240080 43.180000
  vertex -1.085990 2.296133 43.180000
 endloop
endfacet
facet normal 0.000000 0.000000 1.000000
 outer loop
  vertex 0.000000 0.000000 43.180000
  vertex -1.085990 2.296133 43.180000
  vertex -1.197348 2.240080 43.180000
 endloop
endfacet
facet normal 0.000000 0.000000 -1.000000
 outer loop
  vertex 0.000000 0.000000 0.000000
  vertex -1.197348 2.240080 0.000000
  vertex -1.085990 2.296133 0.000000
 endloop
endfacet
facet normal -0.492898 0.870087 0.000000
 outer loop
  vertex -1.197348 2.240080 0.000000
  vertex -1.305821 2.178631 0.000000
  vertex -1.305821 2.178631 43.180000
 endloop
endfacet
facet normal -0.492898 0.870087 0.000000
 outer loop
  vertex -1.197348 2.240080 0.000000
  vertex -1.305821 2.178631 43.180000
  vertex -1.197348 2.240080 43.180000
 endloop
endfacet
facet normal 0.000000 0.000000 1.000000
 outer loop
  vertex 0.000000 0.000000 43.180000
  vertex -1.197348 2.240080 43.180000
  vertex -1.305821 2.178631 43.180000
 endloop
endfacet
facet normal 0.000000 0.000000 -1.000000
 outer loop
  vertex 0.000000 0.000000 0.000000
  vertex -1.305821 2.178631 0.000000
  vertex -1.197348 2.240080 0.000000
 endloop
endfacet
facet normal -0.534998 0.844854 0.000000
 outer loop
  vertex -1.305821 2.178631 0.000000
  vertex -1.411148 2.111933 0.000000
  vertex -1.411148 2.111933 43.180000
 endloop
endfacet
facet normal -0.534998 0.844854 0.000000
 outer loop
  vertex -1.305821 2.178631 0.000000
  vertex -1.411148 2.111933 43.180000
  vertex -1.305821 2.178631 43.180000
 endloop
endfacet
facet normal 0.000000 0.000000 1.000000
 outer loop
  vertex 0.000000 0.000000 43.180000
  vertex -1.305821 2.178631 43.180000
  vertex -1.411148 2.111933 43.180000
 endloop
endfacet
facet normal 0.000000 0.000000 -1.000000
 outer loop
  vertex 0.000000 0.000000 0.000000
  vertex -1.411148 2.111933 0.000000
  vertex -1.305821 2.178631 0.000000
 endloop
endfacet
facet normal -0.575808 0.817585 0.000000
 outer loop
  vertex -1.411148 2.111933 0.000000
  vertex -1.513076 2.040147 0.000000
  vertex -1.513076 2.040147 43.180000
 endloop
endfacet
facet normal -0.575808 0.817585 0.000000
 outer loop
  vertex -1.411148 2.111933 0.000000
  vertex -1.513076 2.040147 43.180000
  vertex -1.411148 2.111933 43.180000
 endloop
endfacet
facet normal 0.000000 0.000000 1.000000
 outer loop
  vertex 0.000000 0.000000 43.180000
  vertex -1.411148 2.111933 43.180000
  vertex -1.513076 2.040147 43.180000
 endloop
endfacet
facet normal 0.000000 0.000000 -1.000000
 outer loop
  vertex 0.000000 0.000000 0.000000
  vertex -1.513076 2.040147 0.000000
  vertex -1.411148 2.111933 0.000000
 endloop
endfacet
facet normal -0.615232 0.788346 0.000000
 outer loop
  vertex -1.513076 2.040147 0.000000
  vertex -1.611359 1.963447 0.000000
  vertex -1.611359 1.963447 43.180000
 endloop
endfacet
facet normal -0.615232 0.788346 0.000000
 outer loop
  vertex -1.513076 2.040147 0.000000
  vertex -1.611359 1.963447 43.180000
  vertex -1.513076 2.040147 43.180000
 endloop
endfacet
facet normal 0.000000 0.000000 1.000000
 outer loop
  vertex 0.000000 0.000000 43.180000
  vertex -1.513076 2.040147 43.180000
  vertex -1.611359 1.963447 43.180000
 endloop
endfacet
facet normal 0.000000 0.000000 -1.000000
 outer loop
  vertex 0.000000 0.000000 0.000000
  vertex -1.611359 1.963447 0.000000
  vertex -1.513076 2.040147 0.000000
 endloop
endfacet
facet normal -0.653173 0.757209 0.000000
 outer loop
  vertex -1.611359 1.963447 0.000000
  vertex -1.705760 1.882016 0.000000
  vertex -1.705760 1.882016 43.180000
 endloop
endfacet
facet normal -0.653173 0.757209 0.000000
 outer loop
  vertex -1.611359 1.963447 0.000000
  vertex -1.705760 1.882016 43.180000
  vertex -1.611359 1.963447 43.180000
 endloop
endfacet
facet normal 0.000000 0.000000 1.000000
 outer loop
  vertex 0.000000 0.000000 43.180000
  vertex -1.611359 1.963447 43.180000
  vertex -1.705760 1.882016 43.180000
 endloop
endfacet
facet normal 0.000000 0.000000 -1.000000
 outer loop
  vertex 0.000000 0.000000 0.000000
  vertex -1.705760 1.882016 0.000000
  vertex -1.611359 1.963447 0.000000
 endloop
endfacet
facet normal -0.689541 0.724247 0.000000
 outer loop
  vertex -1.705760 1.882016 0.000000
  vertex -1.796051 1.796051 0.000000
  vertex -1.796051 1.796051 43.180000
 endloop
endfacet
facet normal -0.689541 0.724247 0.000000
 outer loop
  vertex -1.705760 1.882016 0.000000
  vertex -1.796051 1.796051 43.180000
  vertex -1.705760 1.882016 43.180000
 endloop
endfacet
facet normal 0.000000 0.000000 1.000000
 outer loop
  vertex 0.000000 0.000000 43.180000
  vertex -1.705760 1.882016 43.180000
  vertex -1.796051 1.796051 43.180000
 endloop
endfacet
facet normal 0.000000 0.000000 -1.000000
 outer loop
  vertex 0.000000 0.000000 0.000000
  vertex -1.796051 1.796051 0.000000
  vertex -1.705760 1.882016 0.000000
 endloop
endfacet
facet normal -0.724247 0.689541 0.000000
 outer loop
  vertex -1.796051 1.796051 0.000000
  vertex -1.882016 1.705760 0.000000
  vertex -1.882016 1.705760 43.180000
 endloop
endfacet
facet normal -0.724247 0.689541 0.000000
 outer loop
  vertex -1.796051 1.796051 0.000000
  vertex -1.882016 1.705760 43.180000
  vertex -1.796051 1.796051 43.180000
 endloop
endfacet
facet normal 0.000000 0.000000 1.000000
 outer loop
  vertex 0.000000 0.000000 43.180000
  vertex -1.796051 1.796051 43.180000
  vertex -1.882016 1.705760 43.180000
 endloop
endfacet
facet normal 0.000000 0.000000 -1.000000
 outer loop
  vertex 0.000000 0.000000 0.000000
  vertex -1.882016 1.705760 0.000000
  vertex -1.796051 1.796051 0.000000
 endloop
endfacet
facet normal -0.757209 0.653173 0.000000
 outer loop
  vertex -1.882016 1.705760 0.000000
  vertex -1.963447 1.611359 0.000000
  vertex -1.963447 1.611359 43.180000
 endloop
endfacet
facet normal -0.757209 0.653173 0.000000
 outer loop
  vertex -1.882016 1.705760 0.000000
  vertex -1.963447 1.611359 43.180000
  vertex -1.882016 1.705760 43.180000
 endloop
endfacet
facet normal 0.000000 0.000000 1.000000
 outer loop
  vertex 0.000000 0.000000 43.180000
  vertex -1.882016 1.705760 43.180000
  vertex -1.963447 1.611359 43.180000
 endloop
endfacet
facet normal 0.000000 0.000000 -1.000000
 outer loop
  vertex 0.000000 0.000000 0.000000
  vertex -1.963447 1.611359 0.000000
  vertex -1.882016 1.705760 0.000000
 endloop
endfacet
facet normal -0.788346 0.615232 0.000000
 outer loop
  vertex -1.963447 1.611359 0.000000
  vertex -2.040147 1.513076 0.000000
  vertex -2.040147 1.513076 43.180000
 endloop
endfacet
facet normal -0.788346 0.615232 0.000000
 outer loop
  vertex -1.963447 1.611359 0.000000
  vertex -2.040147 1.513076 43.180000
  vertex -1.963447 1.611359 43.180000
 endloop
endfacet
facet normal 0.000000 0.000000 1.000000
 outer loop
  vertex 0.000000 0.000000 43.180000
  vertex -1.963447 1.611359 43.180000
  vertex -2.040147 1.513076 43.180000
 endloop
endfacet
facet normal 0.000000 0.000000 -1.000000
 outer loop
  vertex 0.000000 0.000000 0.000000
  vertex -2.040147 1.513076 0.000000
  vertex -1.963447 1.611359 0.000000
 endloop
endfacet
facet normal -0.817585 0.575808 0.000000
 outer loop
  vertex -2.040147 1.513076 0.000000
  vertex -2.111933 1.411148 0.000000
  vertex -2.111933 1.411148 43.180000
 endloop
endfacet
facet normal -0.817585 0.575808 0.000000
 outer loop
  vertex -2.040147 1.513076 0.000000
  vertex -2.111933 1.411148 43.180000
  vertex -2.040147 1.513076 43.180000
 endloop
endfacet
facet normal 0.000000 0.000000 1.000000
 outer loop
  vertex 0.000000 0.000000 43.180000
  vertex -2.040147 1.513076 43.180000
  vertex -2.111933 1.411148 43.180000
 endloop
endfacet
facet normal 0.000000 0.000000 -1.000000
 outer loop
  vertex 0.000000 0.000000 0.000000
  vertex -2.111933 1.411148 0.000000
  vertex -2.040147 1.513076 0.000000
 endloop
endfacet
facet normal -0.844854 0.534998 0.000000
 outer loop
  vertex -2.111933 1.411148 0.000000
  vertex -2.178631 1.305821 0.000000
  vertex -2.178631 1.305821 43.180000
 endloop
endfacet
facet normal -0.844854 0.534998 0.000000
 outer loop
  vertex -2.111933 1.411148 0.000000
  vertex -2.178631 1.305821 43.180000
  vertex -2.111933 1.411148 43.180000
 endloop
endfacet
facet normal 0.000000 0.000000 1.000000
 outer loop
  vertex 0.000000 0.000000 43.180000
  vertex -2.111933 1.411148 43.180000
  vertex -2.178631 1.305821 43.180000
 endloop
endfacet
facet normal 0.000000 0.000000 -1.000000
 outer loop
  vertex 0.000000 0.000000 0.000000
  vertex -2.178631 1.305821 0.000000
  vertex -2.111933 1.411148 0.000000
 endloop
endfacet
facet normal -0.870087 0.492898 0.000000
 outer loop
  vertex -2.178631 1.305821 0.000000
  vertex -2.240080 1.197348 0.000000
  vertex -2.240080 1.197348 43.180000
 endloop
endfacet
facet normal -0.870087 0.492898 0.000000
 outer loop
  vertex -2.178631 1.305821 0.000000
  vertex -2.240080 1.197348 43.180000
  vertex -2.178631 1.305821 43.180000
 endloop
endfacet
facet normal 0.000000 0.000000 1.000000
 outer loop
  vertex 0.000000 0.000000 43.180000
  vertex -2.178631 1.305821 43.180000
  vertex -2.240080 1.197348 43.180000
 endloop
endfacet
facet normal 0.000000 0.000000 -1.000000
 outer loop
  vertex 0.000000 0.000000 0.000000
  vertex -2.240080 1.197348 0.000000
  vertex -2.178631 1.305821 0.000000
 endloop
endfacet
facet normal -0.893224 0.449611 0.000000
 outer loop
  vertex -2.240080 1.197348 0.000000
  vertex -2.296133 1.085990 0.000000
  vertex -2.296133 1.085990 43.180000
 endloop
endfacet
facet normal -0.893224 0.449611 0.000000
 outer loop
  vertex -2.240080 1.197348 0.000000
  vertex -2.296133 1.085990 43.180000
  vertex -2.240080 1.197348 43.180000
 endloop
endfacet
facet normal 0.000000 0.000000 1.000000
 outer loop
  vertex 0.000000 0.000000 43.180000
  vertex -2.240080 1.197348 43.180000
  vertex -2.296133 1.085990 43.180000
 endloop
endfacet
facet normal 0.000000 0.000000 -1.000000
 outer loop
  vertex 0.000000 0.000000 0.000000
  vertex -2.296133 1.085990 0.000000
  vertex -2.240080 1.197348 0.000000
 endloop
endfacet
facet normal -0.914210 0.405241 0.000000
 outer loop
  vertex -2.296133 1.085990 0.000000
  vertex -2.346654 0.972016 0.000000
  vertex -2.346654 0.972016 43.180000
 endloop
endfacet
facet normal -0.914210 0.405241 0.000000
 outer loop
  vertex -2.296133 1.085990 0.000000
  vertex -2.346654 0.972016 43.180000
  vertex -2.296133 1.085990 43.180000
 endloop
endfacet
facet normal 0.000000 0.000000 1.000000
 outer loop
  vertex 0.000000 0.000000 43.180000
  vertex -2.296133 1.085990 43.180000
  vertex -2.346654 0.972016 43.180000
 endloop
endfacet
facet normal 0.000000 0.000000 -1.000000
 outer loop
  vertex 0.000000 0.000000 0.000000
  vertex -2.346654 0.972016 0.000000
  vertex -2.296133 1.085990 0.000000
 endloop
endfacet
facet normal -0.932993 0.359895 0.000000
 outer loop
  vertex -2.346654 0.972016 0.000000
  vertex -2.391522 0.855700 0.000000
  vertex -2.391522 0.855700 43.180000
 endloop
endfacet
facet normal -0.932993 0.359895 0.000000
 outer loop
  vertex -2.346654 0.972016 0.000000
  vertex -2.391522 0.855700 43.180000
  vertex -2.346654 0.972016 43.180000
 endloop
endfacet
facet normal 0.000000 0.000000 1.000000
 outer loop
  vertex 0.000000 0.000000 43.180000
  vertex -2.346654 0.972016 43.180000
  vertex -2.391522 0.855700 43.180000
 endloop
endfacet
facet normal 0.000000 0.000000 -1.000000
 outer loop
  vertex 0.000000 0.000000 0.000000
  vertex -2.391522 0.855700 0.000000
  vertex -2.346654 0.972016 0.000000
 endloop
endfacet
facet normal -0.949528 0.313682 0.000000
 outer loop
  vertex -2.391522 0.855700 0.000000
  vertex -2.430628 0.737323 0.000000
  vertex -2.430628 0.737323 43.180000
 endloop
endfacet
facet normal -0.949528 0.313682 0.000000
 outer loop
  vertex -2.391522 0.855700 0.000000
  vertex -2.430628 0.737323 43.180000
  vertex -2.391522 0.855700 43.180000
 endloop
endfacet
facet normal 0.000000 0.000000 1.000000
 outer loop
  vertex 0.000000 0.000000 43.180000
  vertex -2.391522 0.855700 43.180000
  vertex -2.430628 0.737323 43.180000
 endloop
endfacet
facet normal 0.000000 0.000000 -1.000000
 outer loop
  vertex 0.000000 0.000000 0.000000
  vertex -2.430628 0.737323 0.000000
  vertex -2.391522 0.855700 0.000000
 endloop
endfacet
facet normal -0.963776 0.266713 0.000000
 outer loop
  vertex -2.430628 0.737323 0.000000
  vertex -2.463879 0.617170 0.000000
  vertex -2.463879 0.617170 43.180000
 endloop
endfacet
facet normal -0.963776 0.266713 0.000000
 outer loop
  vertex -2.430628 0.737323 0.000000
  vertex -2.463879 0.617170 43.180000
  vertex -2.430628 0.737323 43.180000
 endloop
endfacet
facet normal 0.000000 0.000000 1.000000
 outer loop
  vertex 0.000000 0.000000 43.180000
  vertex -2.430628 0.737323 43.180000
  vertex -2.463879 0.617170 43.180000
 endloop
endfacet
facet normal 0.000000 0.000000 -1.000000
 outer loop
  vertex 0.000000 0.000000 0.000000
  vertex -2.463879 0.617170 0.000000
  vertex -2.430628 0.737323 0.000000
 endloop
endfacet
facet normal -0.975702 0.219101 0.000000
 outer loop
  vertex -2.463879 0.617170 0.000000
  vertex -2.491195 0.495529 0.000000
  vertex -2.491195 0.495529 43.180000
 endloop
endfacet
facet normal -0.975702 0.219101 0.000000
 outer loop
  vertex -2.463879 0.617170 0.000000
  vertex -2.491195 0.495529 43.180000
  vertex -2.463879 0.617170 43.180000
 endloop
endfacet
facet normal 0.000000 0.000000 1.000000
 outer loop
  vertex 0.000000 0.000000 43.180000
  vertex -2.463879 0.617170 43.180000
  vertex -2.491195 0.495529 43.180000
 endloop
endfacet
facet normal 0.000000 0.000000 -1.000000
 outer loop
  vertex 0.000000 0.000000 0.000000
  vertex -2.491195 0.495529 0.000000
  vertex -2.463879 0.617170 0.000000
 endloop
endfacet
facet normal -0.985278 0.170962 0.000000
 outer loop
  vertex -2.491195 0.495529 0.000000
  vertex -2.512508 0.372695 0.000000
  vertex -2.512508 0.372695 43.180000
 endloop
endfacet
facet normal -0.985278 0.170962 0.000000
 outer loop
  vertex -2.491195 0.495529 0.000000
  vertex -2.512508 0.372695 43.180000
  vertex -2.491195 0.495529 43.180000
 endloop
endfacet
facet normal 0.000000 0.000000 1.000000
 outer loop
  vertex 0.000000 0.000000 43.180000
  vertex -2.491195 0.495529 43.180000
  vertex -2.512508 0.372695 43.180000
 endloop
endfacet
facet normal 0.000000 0.000000 -1.000000
 outer loop
  vertex 0.000000 0.000000 0.000000
  vertex -2.512508 0.372695 0.000000
  vertex -2.491195 0.495529 0.000000
 endloop
endfacet
facet normal -0.992480 0.122411 0.000000
 outer loop
  vertex -2.512508 0.372695 0.000000
  vertex -2.527769 0.248964 0.000000
  vertex -2.527769 0.248964 43.180000
 endloop
endfacet
facet normal -0.992480 0.122411 0.000000
 outer loop
  vertex -2.512508 0.372695 0.000000
  vertex -2.527769 0.248964 43.180000
  vertex -2.512508 0.372695 43.180000
 endloop
endfacet
facet normal 0.000000 0.000000 1.000000
 outer loop
  vertex 0.000000 0.000000 43.180000
  vertex -2.512508 0.372695 43.180000
  vertex -2.527769 0.248964 43.180000
 endloop
endfacet
facet normal 0.000000 0.000000 -1.000000
 outer loop
  vertex 0.000000 0.000000 0.000000
  vertex -2.527769 0.248964 0.000000
  vertex -2.512508 0.372695 0.000000
 endloop
endfacet
facet normal -0.997290 0.073565 0.000000
 outer loop
  vertex -2.527769 0.248964 0.000000
  vertex -2.536940 0.124632 0.000000
  vertex -2.536940 0.124632 43.180000
 endloop
endfacet
facet normal -0.997290 0.073565 0.000000
 outer loop
  vertex -2.527769 0.248964 0.000000
  vertex -2.536940 0.124632 43.180000
  vertex -2.527769 0.248964 43.180000
 endloop
endfacet
facet normal 0.000000 0.000000 1.000000
 outer loop
  vertex 0.000000 0.000000 43.180000
  vertex -2.527769 0.248964 43.180000
  vertex -2.536940 0.124632 43.180000
 endloop
endfacet
facet normal 0.000000 0.000000 -1.000000
 outer loop
  vertex 0.000000 0.000000 0.000000
  vertex -2.536940 0.124632 0.000000
  vertex -2.527769 0.248964 0.000000
 endloop
endfacet
facet normal -0.999699 0.024541 0.000000
 outer loop
  vertex -2.536940 0.124632 0.000000
  vertex -2.540000 0.000000 0.000000
  vertex -2.540000 0.000000 43.180000
 endloop
endfacet
facet normal -0.999699 0.024541 0.000000
 outer loop
  vertex -2.536940 0.124632 0.000000
  vertex -2.540000 0.000000 43.180000
  vertex -2.536940 0.124632 43.180000
 endloop
endfacet
facet normal 0.000000 0.000000 1.000000
 outer loop
  vertex 0.000000 0.000000 43.180000
  vertex -2.536940 0.124632 43.180000
  vertex -2.540000 0.000000 43.180000
 endloop
endfacet
facet normal 0.000000 0.000000 -1.000000
 outer loop
  vertex 0.000000 0.000000 0.000000
  vertex -2.540000 0.000000 0.000000
  vertex -2.536940 0.124632 0.000000
 endloop
endfacet
facet normal -0.999699 -0.024541 0.000000
 outer loop
  vertex -2.540000 0.000000 0.000000
  vertex -2.536940 -0.124632 0.000000
  vertex -2.536940 -0.124632 43.180000
 endloop
endfacet
facet normal -0.999699 -0.024541 0.000000
 outer loop
  vertex -2.540000 0.000000 0.000000
  vertex -2.536940 -0.124632 43.180000
  vertex -2.540000 0.000000 43.180000
 endloop
endfacet
facet normal 0.000000 0.000000 1.000000
 outer loop
  vertex 0.000000 0.000000 43.180000
  vertex -2.540000 0.000000 43.180000
  vertex -2.536940 -0.124632 43.180000
 endloop
endfacet
facet normal -0.000000 0.000000 -1.000000
 outer loop
  vertex 0.000000 0.000000 0.000000
  vertex -2.536940 -0.124632 0.000000
  vertex -2.540000 0.000000 0.000000
 endloop
endfacet
facet normal -0.997290 -0.073565 0.000000
 outer loop
  vertex -2.536940 -0.124632 0.000000
  vertex -2.527769 -0.248964 0.000000
  vertex -2.527769 -0.248964 43.180000
 endloop
endfacet
facet normal -0.997290 -0.073565 0.000000
 outer loop
  vertex -2.536940 -0.124632 0.000000
  vertex -2.527769 -0.248964 43.180000
  vertex -2.536940 -0.124632 43.180000
 endloop
endfacet
facet normal 0.000000 0.000000 1.000000
 outer loop
  vertex 0.000000 0.000000 43.180000
  vertex -2.536940 -0.124632 43.180000
  vertex -2.527769 -0.248964 43.180000
 endloop
endfacet
facet normal 0.000000 0.000000 -1.000000
 outer loop
  vertex 0.000000 0.000000 0.000000
  vertex -2.527769 -0.248964 0.000000
  vertex -2.536940 -0.124632 0.000000
 endloop
endfacet
facet normal -0.992480 -0.122411 0.000000
 outer loop
  vertex -2.527769 -0.248964 0.000000
  vertex -2.512508 -0.372695 0.000000
  vertex -2.512508 -0.372695 43.180000
 endloop
endfacet
facet normal -0.992480 -0.122411 0.000000
 outer loop
  vertex -2.527769 -0.248964 0.000000
  vertex -2.512508 -0.372695 43.180000
  vertex -2.527769 -0.248964 43.180000
 endloop
endfacet
facet normal 0.000000 0.000000 1.000000
 outer loop
  vertex 0.000000 0.000000 43.180000
  vertex -2.527769 -0.248964 43.180000
  vertex -2.512508 -0.372695 43.180000
 endloop
endfacet
facet normal 0.000000 0.000000 -1.000000
 outer loop
  vertex 0.000000 0.000000 0.000000
  vertex -2.512508 -0.372695 0.000000
  vertex -2.527769 -0.248964 0.000000
 endloop
endfacet
facet normal -0.985278 -0.170962 0.000000
 outer loop
  vertex -2.512508 -0.372695 0.000000
  vertex -2.491195 -0.495529 0.000000
  vertex -2.491195 -0.495529 43.180000
 endloop
endfacet
facet normal -0.985278 -0.170962 0.000000
 outer loop
  vertex -2.512508 -0.372695 0.000000
  vertex -2.491195 -0.495529 43.180000
  vertex -2.512508 -0.372695 43.180000
 endloop
endfacet
facet normal 0.000000 0.000000 1.000000
 outer loop
  vertex 0.000000 0.000000 43.180000
  vertex -2.512508 -0.372695 43.180000
  vertex -2.491195 -0.495529 43.180000
 endloop
endfacet
facet normal 0.000000 0.000000 -1.000000
 outer loop
  vertex 0.000000 0.000000 0.000000
  vertex -2.491195 -0.495529 0.000000
  vertex -2.512508 -0.372695 0.000000
 endloop
endfacet
facet normal -0.975702 -0.219101 0.000000
 outer loop
  vertex -2.491195 -0.495529 0.000000
  vertex -2.463879 -0.617170 0.000000
  vertex -2.463879 -0.617170 43.180000
 endloop
endfacet
facet normal -0.975702 -0.219101 0.000000
 outer loop
  vertex -2.491195 -0.495529 0.000000
  vertex -2.463879 -0.617170 43.180000
  vertex -2.491195 -0.495529 43.180000
 endloop
endfacet
facet normal 0.000000 0.000000 1.000000
 outer loop
  vertex 0.000000 0.000000 43.180000
  vertex -2.491195 -0.495529 43.180000
  vertex -2.463879 -0.617170 43.180000
 endloop
endfacet
facet normal 0.000000 0.000000 -1.000000
 outer loop
  vertex 0.000000 0.000000 0.000000
  vertex -2.463879 -0.617170 0.000000
  vertex -2.491195 -0.495529 0.000000
 endloop
endfacet
facet normal -0.963776 -0.266713 0.000000
 outer loop
  vertex -2.463879 -0.617170 0.000000
  vertex -2.430628 -0.737323 0.000000
  vertex -2.430628 -0.737323 43.180000
 endloop
endfacet
facet normal -0.963776 -0.266713 0.000000
 outer loop
  vertex -2.463879 -0.617170 0.000000
  vertex -2.430628 -0.737323 43.180000
  vertex -2.463879 -0.617170 43.180000
 endloop
endfacet
facet normal 0.000000 0.000000 1.000000
 outer loop
  vertex 0.000000 0.000000 43.180000
  vertex -2.463879 -0.617170 43.180000
  vertex -2.430628 -0.737323 43.180000
 endloop
endfacet
facet normal 0.000000 0.000000 -1.000000
 outer loop
  vertex 0.000000 0.000000 0.000000
  vertex -2.430628 -0.737323 0.000000
  vertex -2.463879 -0.617170 0.000000
 endloop
endfacet
facet normal -0.949528 -0.313682 0.000000
 outer loop
  vertex -2.430628 -0.737323 0.000000
  vertex -2.391522 -0.855700 0.000000
  vertex -2.391522 -0.855700 43.180000
 endloop
endfacet
facet normal -0.949528 -0.313682 0.000000
 outer loop
  vertex -2.430628 -0.737323 0.000000
  vertex -2.391522 -0.855700 43.180000
  vertex -2.430628 -0.737323 43.180000
 endloop
endfacet
facet normal 0.000000 0.000000 1.000000
 outer loop
  vertex 0.000000 0.000000 43.180000
  vertex -2.430628 -0.737323 43.180000
  vertex -2.391522 -0.855700 43.180000
 endloop
endfacet
facet normal 0.000000 0.000000 -1.000000
 outer loop
  vertex 0.000000 0.000000 0.000000
  vertex -2.391522 -0.855700 0.000000
  vertex -2.430628 -0.737323 0.000000
 endloop
endfacet
facet normal -0.932993 -0.359895 0.000000
 outer loop
  vertex -2.391522 -0.855700 0.000000
  vertex -2.346654 -0.972016 0.000000
  vertex -2.346654 -0.972016 43.180000
 endloop
endfacet
facet normal -0.932993 -0.359895 0.000000
 outer loop
  vertex -2.391522 -0.855700 0.000000
  vertex -2.346654 -0.972016 43.180000
  vertex -2.391522 -0.855700 43.180000
 endloop
endfacet
facet normal 0.000000 0.000000 1.000000
 outer loop
  vertex 0.000000 0.000000 43.180000
  vertex -2.391522 -0.855700 43.180000
  vertex -2.346654 -0.972016 43.180000
 endloop
endfacet
facet normal 0.000000 0.000000 -1.000000
 outer loop
  vertex 0.000000 0.000000 0.000000
  vertex -2.346654 -0.972016 0.000000
  vertex -2.391522 -0.855700 0.000000
 endloop
endfacet
facet normal -0.914210 -0.405241 0.000000
 outer loop
  vertex -2.346654 -0.972016 0.000000
  vertex -2.296133 -1.085990 0.000000
  vertex -2.296133 -1.085990 43.180000
 endloop
endfacet
facet normal -0.914210 -0.405241 0.000000
 outer loop
  vertex -2.346654 -0.972016 0.000000
  vertex -2.296133 -1.085990 43.180000
  vertex -2.346654 -0.972016 43.180000
 endloop
endfacet
facet normal 0.000000 0.000000 1.000000
 outer loop
  vertex 0.000000 0.000000 43.180000
  vertex -2.346654 -0.972016 43.180000
  vertex -2.296133 -1.085990 43.180000
 endloop
endfacet
facet normal 0.000000 0.000000 -1.000000
 outer loop
  vertex 0.000000 0.000000 0.000000
  vertex -2.296133 -1.085990 0.000000
  vertex -2.346654 -0.972016 0.000000
 endloop
endfacet
facet normal -0.893224 -0.449611 0.000000
 outer loop
  vertex -2.296133 -1.085990 0.000000
  vertex -2.240080 -1.197348 0.000000
  vertex -2.240080 -1.197348 43.180000
 endloop
endfacet
facet normal -0.893224 -0.449611 0.000000
 outer loop
  vertex -2.296133 -1.085990 0.000000
  vertex -2.240080 -1.197348 43.180000
  vertex -2.296133 -1.085990 43.180000
 endloop
endfacet
facet normal 0.000000 0.000000 1.000000
 outer loop
  vertex 0.000000 0.000000 43.180000
  vertex -2.296133 -1.085990 43.180000
  vertex -2.240080 -1.197348 43.180000
 endloop
endfacet
facet normal 0.000000 0.000000 -1.000000
 outer loop
  vertex 0.000000 0.000000 0.000000
  vertex -2.240080 -1.197348 0.000000
  vertex -2.296133 -1.085990 0.000000
 endloop
endfacet
facet normal -0.870087 -0.492898 0.000000
 outer loop
  vertex -2.240080 -1.197348 0.000000
  vertex -2.178631 -1.305821 0.000000
  vertex -2.178631 -1.305821 43.180000
 endloop
endfacet
facet normal -0.870087 -0.492898 0.000000
 outer loop
  vertex -2.240080 -1.197348 0.000000
  vertex -2.178631 -1.305821 43.180000
  vertex -2.240080 -1.197348 43.180000
 endloop
endfacet
facet normal 0.000000 0.000000 1.000000
 outer loop
  vertex 0.000000 0.000000 43.180000
  vertex -2.240080 -1.197348 43.180000
  vertex -2.178631 -1.305821 43.180000
 endloop
endfacet
facet normal 0.000000 0.000000 -1.000000
 outer loop
  vertex 0.000000 0.000000 0.000000
  vertex -2.178631 -1.305821 0.000000
  vertex -2.240080 -1.197348 0.000000
 endloop
endfacet
facet normal -0.844854 -0.534998 0.000000
 outer loop
  vertex -2.178631 -1.305821 0.000000
  vertex -2.111933 -1.411148 0.000000
  vertex -2.111933 -1.411148 43.180000
 endloop
endfacet
facet normal -0.844854 -0.534998 0.000000
 outer loop
  vertex -2.178631 -1.305821 0.000000
  vertex -2.111933 -1.411148 43.180000
  vertex -2.178631 -1.305821 43.180000
 endloop
endfacet
facet normal 0.000000 0.000000 1.000000
 outer loop
  vertex 0.000000 0.000000 43.180000
  vertex -2.178631 -1.305821 43.180000
  vertex -2.111933 -1.411148 43.180000
 endloop
endfacet
facet normal 0.000000 0.000000 -1.000000
 outer loop
  vertex 0.000000 0.000000 0.000000
  vertex -2.111933 -1.411148 0.000000
  vertex -2.178631 -1.305821 0.000000
 endloop
endfacet
facet normal -0.817585 -0.575808 0.000000
 outer loop
  vertex -2.111933 -1.411148 0.000000
  vertex -2.040147 -1.513076 0.000000
  vertex -2.040147 -1.513076 43.180000
 endloop
endfacet
facet normal -0.817585 -0.575808 0.000000
 outer loop
  vertex -2.111933 -1.411148 0.000000
  vertex -2.040147 -1.513076 43.180000
  vertex -2.111933 -1.411148 43.180000
 endloop
endfacet
facet normal 0.000000 0.000000 1.000000
 outer loop
  vertex 0.000000 0.000000 43.180000
  vertex -2.111933 -1.411148 43.180000
  vertex -2.040147 -1.513076 43.180000
 endloop
endfacet
facet normal 0.000000 0.000000 -1.000000
 outer loop
  vertex 0.000000 0.000000 0.000000
  vertex -2.040147 -1.513076 0.000000
  vertex -2.111933 -1.411148 0.000000
 endloop
endfacet
facet normal -0.788346 -0.615232 0.000000
 outer loop
  vertex -2.040147 -1.513076 0.000000
  vertex -1.963447 -1.611359 0.000000
  vertex -1.963447 -1.611359 43.180000
 endloop
endfacet
facet normal -0.788346 -0.615232 0.000000
 outer loop
  vertex -2.040147 -1.513076 0.000000
  vertex -1.963447 -1.611359 43.180000
  vertex -2.040147 -1.513076 43.180000
 endloop
endfacet
facet normal 0.000000 0.000000 1.000000
 outer loop
  vertex 0.000000 0.000000 43.180000
  vertex -2.040147 -1.513076 43.180000
  vertex -1.963447 -1.611359 43.180000
 endloop
endfacet
facet normal 0.000000 0.000000 -1.000000
 outer loop
  vertex 0.000000 0.000000 0.000000
  vertex -1.963447 -1.611359 0.000000
  vertex -2.040147 -1.513076 0.000000
 endloop
endfacet
facet normal -0.757209 -0.653173 0.000000
 outer loop
  vertex -1.963447 -1.611359 0.000000
  vertex -1.882016 -1.705760 0.000000
  vertex -1.882016 -1.705760 43.180000
 endloop
endfacet
facet normal -0.757209 -0.653173 0.000000
 outer loop
  vertex -1.963447 -1.611359 0.000000
  vertex -1.882016 -1.705760 43.180000
  vertex -1.963447 -1.611359 43.180000
 endloop
endfacet
facet normal 0.000000 0.000000 1.000000
 outer loop
  vertex 0.000000 0.000000 43.180000
  vertex -1.963447 -1.611359 43.180000
  vertex -1.882016 -1.705760 43.180000
 endloop
endfacet
facet normal 0.000000 0.000000 -1.000000
 outer loop
  vertex 0.000000 0.000000 0.000000
  vertex -1.882016 -1.705760 0.000000
  vertex -1.963447 -1.611359 0.000000
 endloop
endfacet
facet normal -0.724247 -0.689541 0.000000
 outer loop
  vertex -1.882016 -1.705760 0.000000
  vertex -1.796051 -1.796051 0.000000
  vertex -1.796051 -1.796051 43.180000
 endloop
endfacet
facet normal -0.724247 -0.689541 0.000000
 outer loop
  vertex -1.882016 -1.705760 0.000000
  vertex -1.796051 -1.796051 43.180000
  vertex -1.882016 -1.705760 43.180000
 endloop
endfacet
facet normal 0.000000 0.000000 1.000000
 outer loop
  vertex 0.000000 0.000000 43.180000
  vertex -1.882016 -1.705760 43.180000
  vertex -1.796051 -1.796051 43.180000
 endloop
endfacet
facet normal 0.000000 0.000000 -1.000000
 outer loop
  vertex 0.000000 0.000000 0.000000
  vertex -1.796051 -1.796051 0.000000
  vertex -1.882016 -1.705760 0.000000
 endloop
endfacet
facet normal -0.689541 -0.724247 0.000000
 outer loop
  vertex -1.796051 -1.796051 0.000000
  vertex -1.705760 -1.882016 0.000000
  vertex -1.705760 -1.882016 43.180000
 endloop
endfacet
facet normal -0.689541 -0.724247 0.000000
 outer loop
  vertex -1.796051 -1.796051 0.000000
  vertex -1.705760 -1.882016 43.180000
  vertex -1.796051 -1.796051 43.180000
 endloop
endfacet
facet normal 0.000000 0.000000 1.000000
 outer loop
  vertex 0.000000 0.000000 43.180000
  vertex -1.796051 -1.796051 43.180000
  vertex -1.705760 -1.882016 43.180000
 endloop
endfacet
facet normal 0.000000 0.000000 -1.000000
 outer loop
  vertex 0.000000 0.000000 0.000000
  vertex -1.705760 -1.882016 0.000000
  vertex -1.796051 -1.796051 0.000000
 endloop
endfacet
facet normal -0.653173 -0.757209 0.000000
 outer loop
  vertex -1.705760 -1.882016 0.000000
  vertex -1.611359 -1.963447 0.000000
  vertex -1.611359 -1.963447 43.180000
 endloop
endfacet
facet normal -0.653173 -0.757209 0.000000
 outer loop
  vertex -1.705760 -1.882016 0.000000
  vertex -1.611359 -1.963447 43.180000
  vertex -1.705760 -1.882016 43.180000
 endloop
endfacet
facet normal 0.000000 0.000000 1.000000
 outer loop
  vertex 0.000000 0.000000 43.180000
  vertex -1.705760 -1.882016 43.180000
  vertex -1.611359 -1.963447 43.180000
 endloop
endfacet
facet normal 0.000000 0.000000 -1.000000
 outer loop
  vertex 0.000000 0.000000 0.000000
  vertex -1.611359 -1.963447 0.000000
  vertex -1.705760 -1.882016 0.000000
 endloop
endfacet
facet normal -0.615232 -0.788346 0.000000
 outer loop
  vertex -1.611359 -1.963447 0.000000
  vertex -1.513076 -2.040147 0.000000
  vertex -1.513076 -2.040147 43.180000
 endloop
endfacet
facet normal -0.615232 -0.788346 0.000000
 outer loop
  vertex -1.611359 -1.963447 0.000000
  vertex -1.513076 -2.040147 43.180000
  vertex -1.611359 -1.963447 43.180000
 endloop
endfacet
facet normal 0.000000 0.000000 1.000000
 outer loop
  vertex 0.000000 0.000000 43.180000
  vertex -1.611359 -1.963447 43.180000
  vertex -1.513076 -2.040147 43.180000
 endloop
endfacet
facet normal 0.000000 0.000000 -1.000000
 outer loop
  vertex 0.000000 0.000000 0.000000
  vertex -1.513076 -2.040147 0.000000
  vertex -1.611359 -1.963447 0.000000
 endloop
endfacet
facet normal -0.575808 -0.817585 0.000000
 outer loop
  vertex -1.513076 -2.040147 0.000000
  vertex -1.411148 -2.111933 0.000000
  vertex -1.411148 -2.111933 43.180000
 endloop
endfacet
facet normal -0.575808 -0.817585 0.000000
 outer loop
  vertex -1.513076 -2.040147 0.000000
  vertex -1.411148 -2.111933 43.180000
  vertex -1.513076 -2.040147 43.180000
 endloop
endfacet
facet normal 0.000000 0.000000 1.000000
 outer loop
  vertex 0.000000 0.000000 43.180000
  vertex -1.513076 -2.040147 43.180000
  vertex -1.411148 -2.111933 43.180000
 endloop
endfacet
facet normal 0.000000 0.000000 -1.000000
 outer loop
  vertex 0.000000 0.000000 0.000000
  vertex -1.411148 -2.111933 0.000000
  vertex -1.513076 -2.040147 0.000000
 endloop
endfacet
facet normal -0.534998 -0.844854 0.000000
 outer loop
  vertex -1.411148 -2.111933 0.000000
  vertex -1.305821 -2.178631 0.000000
  vertex -1.305821 -2.178631 43.180000
 endloop
endfacet
facet normal -0.534998 -0.844854 0.000000
 outer loop
  vertex -1.411148 -2.111933 0.000000
  vertex -1.305821 -2.178631 43.180000
  vertex -1.411148 -2.111933 43.180000
 endloop
endfacet
facet normal 0.000000 0.000000 1.000000
 outer loop
  vertex 0.000000 0.000000 43.180000
  vertex -1.411148 -2.111933 43.180000
  vertex -1.305821 -2.178631 43.180000
 endloop
endfacet
facet normal 0.000000 0.000000 -1.000000
 outer loop
  vertex 0.000000 0.000000 0.000000
  vertex -1.305821 -2.178631 0.000000
  vertex -1.411148 -2.111933 0.000000
 endloop
endfacet
facet normal -0.492898 -0.870087 0.000000
 outer loop
  vertex -1.305821 -2.178631 0.000000
  vertex -1.197348 -2.240080 0.000000
  vertex -1.197348 -2.240080 43.180000
 endloop
endfacet
facet normal -0.492898 -0.870087 0.000000
 outer loop
  vertex -1.305821 -2.178631 0.000000
  vertex -1.197348 -2.240080 43.180000
  vertex -1.305821 -2.178631 43.180000
 endloop
endfacet
facet normal 0.000000 0.000000 1.000000
 outer loop
  vertex 0.000000 0.000000 43.180000
  vertex -1.305821 -2.178631 43.180000
  vertex -1.197348 -2.240080 43.180000
 endloop
endfacet
facet normal 0.000000 0.000000 -1.000000
 outer loop
  vertex 0.000000 0.000000 0.000000
  vertex -1.197348 -2.240080 0.000000
  vertex -1.305821 -2.178631 0.000000
 endloop
endfacet
facet normal -0.449611 -0.893224 0.000000
 outer loop
  vertex -1.197348 -2.240080 0.000000
  vertex -1.085990 -2.296133 0.000000
  vertex -1.085990 -2.296133 43.180000
 endloop
endfacet
facet normal -0.449611 -0.893224 0.000000
 outer loop
  vertex -1.197348 -2.240080 0.000000
  vertex -1.085990 -2.296133 43.180000
  vertex -1.197348 -2.240080 43.180000
 endloop
endfacet
facet normal 0.000000 0.000000 1.000000
 outer loop
  vertex 0.000000 0.000000 43.180000
  vertex -1.197348 -2.240080 43.180000
  vertex -1.085990 -2.296133 43.180000
 endloop
endfacet
facet normal 0.000000 0.000000 -1.000000
 outer loop
  vertex 0.000000 0.000000 0.000000
  vertex -1.085990 -2.296133 0.000000
  vertex -1.197348 -2.240080 0.000000
 endloop
endfacet
facet normal -0.405241 -0.914210 0.000000
 outer loop
  vertex -1.085990 -2.296133 0.000000
  vertex -0.972016 -2.346654 0.000000
  vertex -0.972016 -2.346654 43.180000
 endloop
endfacet
facet normal -0.405241 -0.914210 0.000000
 outer loop
  vertex -1.085990 -2.296133 0.000000
  vertex -0.972016 -2.346654 43.180000
  vertex -1.085990 -2.296133 43.180000
 endloop
endfacet
facet normal 0.000000 0.000000 1.000000
 outer loop
  vertex 0.000000 0.000000 43.180000
  vertex -1.085990 -2.296133 43.180000
  vertex -0.972016 -2.346654 43.180000
 endloop
endfacet
facet normal 0.000000 0.000000 -1.000000
 outer loop
  vertex 0.000000 0.000000 0.000000
  vertex -0.972016 -2.346654 0.000000
  vertex -1.085990 -2.296133 0.000000
 endloop
endfacet
facet normal -0.359895 -0.932993 0.000000
 outer loop
  vertex -0.972016 -2.346654 0.000000
  vertex -0.855700 -2.391522 0.000000
  vertex -0.855700 -2.391522 43.180000
 endloop
endfacet
facet normal -0.359895 -0.932993 0.000000
 outer loop
  vertex -0.972016 -2.346654 0.000000
  vertex -0.855700 -2.391522 43.180000
  vertex -0.972016 -2.346654 43.180000
 endloop
endfacet
facet normal 0.000000 0.000000 1.000000
 outer loop
  vertex 0.000000 0.000000 43.180000
  vertex -0.972016 -2.346654 43.180000
  vertex -0.855700 -2.391522 43.180000
 endloop
endfacet
facet normal 0.000000 0.000000 -1.000000
 outer loop
  vertex 0.000000 0.000000 0.000000
  vertex -0.855700 -2.391522 0.000000
  vertex -0.972016 -2.346654 0.000000
 endloop
endfacet
facet normal -0.313682 -0.949528 0.000000
 outer loop
  vertex -0.855700 -2.391522 0.000000
  vertex -0.737323 -2.430628 0.000000
  vertex -0.737323 -2.430628 43.180000
 endloop
endfacet
facet normal -0.313682 -0.949528 0.000000
 outer loop
  vertex -0.855700 -2.391522 0.000000
  vertex -0.737323 -2.430628 43.180000
  vertex -0.855700 -2.391522 43.180000
 endloop
endfacet
facet normal 0.000000 0.000000 1.000000
 outer loop
  vertex 0.000000 0.000000 43.180000
  vertex -0.855700 -2.391522 43.180000
  vertex -0.737323 -2.430628 43.180000
 endloop
endfacet
facet normal 0.000000 0.000000 -1.000000
 outer loop
  vertex 0.000000 0.000000 0.000000
  vertex -0.737323 -2.430628 0.000000
  vertex -0.855700 -2.391522 0.000000
 endloop
endfacet
facet normal -0.266713 -0.963776 0.000000
 outer loop
  vertex -0.737323 -2.430628 0.000000
  vertex -0.617170 -2.463879 0.000000
  vertex -0.617170 -2.463879 43.180000
 endloop
endfacet
facet normal -0.266713 -0.963776 0.000000
 outer loop
  vertex -0.737323 -2.430628 0.000000
  vertex -0.617170 -2.463879 43.180000
  vertex -0.737323 -2.430628 43.180000
 endloop
endfacet
facet normal 0.000000 0.000000 1.000000
 outer loop
  vertex 0.000000 0.000000 43.180000
  vertex -0.737323 -2.430628 43.180000
  vertex -0.617170 -2.463879 43.180000
 endloop
endfacet
facet normal 0.000000 0.000000 -1.000000
 outer loop
  vertex 0.000000 0.000000 0.000000
  vertex -0.617170 -2.463879 0.000000
  vertex -0.737323 -2.430628 0.000000
 endloop
endfacet
facet normal -0.219101 -0.975702 0.000000
 outer loop
  vertex -0.617170 -2.463879 0.000000
  vertex -0.495529 -2.491195 0.000000
  vertex -0.495529 -2.491195 43.180000
 endloop
endfacet
facet normal -0.219101 -0.975702 0.000000
 outer loop
  vertex -0.617170 -2.463879 0.000000
  vertex -0.495529 -2.491195 43.180000
  vertex -0.617170 -2.463879 43.180000
 endloop
endfacet
facet normal 0.000000 0.000000 1.000000
 outer loop
  vertex 0.000000 0.000000 43.180000
  vertex -0.617170 -2.463879 43.180000
  vertex -0.495529 -2.491195 43.180000
 endloop
endfacet
facet normal 0.000000 0.000000 -1.000000
 outer loop
  vertex 0.000000 0.000000 0.000000
  vertex -0.495529 -2.491195 0.000000
  vertex -0.617170 -2.463879 0.000000
 endloop
endfacet
facet normal -0.170962 -0.985278 0.000000
 outer loop
  vertex -0.495529 -2.491195 0.000000
  vertex -0.372695 -2.512508 0.000000
  vertex -0.372695 -2.512508 43.180000
 endloop
endfacet
facet normal -0.170962 -0.985278 0.000000
 outer loop
  vertex -0.495529 -2.491195 0.000000
  vertex -0.372695 -2.512508 43.180000
  vertex -0.495529 -2.491195 43.180000
 endloop
endfacet
facet normal 0.000000 0.000000 1.000000
 outer loop
  vertex 0.000000 0.000000 43.180000
  vertex -0.495529 -2.491195 43.180000
  vertex -0.372695 -2.512508 43.180000
 endloop
endfacet
facet normal 0.000000 0.000000 -1.000000
 outer loop
  vertex 0.000000 0.000000 0.000000
  vertex -0.372695 -2.512508 0.000000
  vertex -0.495529 -2.491195 0.000000
 endloop
endfacet
facet normal -0.122411 -0.992480 0.000000
 outer loop
  vertex -0.372695 -2.512508 0.000000
  vertex -0.248964 -2.527769 0.000000
  vertex -0.248964 -2.527769 43.180000
 endloop
endfacet
facet normal -0.122411 -0.992480 0.000000
 outer loop
  vertex -0.372695 -2.512508 0.000000
  vertex -0.248964 -2.527769 43.180000
  vertex -0.372695 -2.512508 43.180000
 endloop
endfacet
facet normal 0.000000 0.000000 1.000000
 outer loop
  vertex 0.000000 0.000000 43.180000
  vertex -0.372695 -2.512508 43.180000
  vertex -0.248964 -2.527769 43.180000
 endloop
endfacet
facet normal 0.000000 0.000000 -1.000000
 outer loop
  vertex 0.000000 0.000000 0.000000
  vertex -0.248964 -2.527769 0.000000
  vertex -0.372695 -2.512508 0.000000
 endloop
endfacet
facet normal -0.073565 -0.997290 0.000000
 outer loop
  vertex -0.248964 -2.527769 0.000000
  vertex -0.124632 -2.536940 0.000000
  vertex -0.124632 -2.536940 43.180000
 endloop
endfacet
facet normal -0.073565 -0.997290 0.000000
 outer loop
  vertex -0.248964 -2.527769 0.000000
  vertex -0.124632 -2.536940 43.180000
  vertex -0.248964 -2.527769 43.180000
 endloop
endfacet
facet normal 0.000000 0.000000 1.000000
 outer loop
  vertex 0.000000 0.000000 43.180000
  vertex -0.248964 -2.527769 43.180000
  vertex -0.124632 -2.536940 43.180000
 endloop
endfacet
facet normal 0.000000 0.000000 -1.000000
 outer loop
  vertex 0.000000 0.000000 0.000000
  vertex -0.124632 -2.536940 0.000000
  vertex -0.248964 -2.527769 0.000000
 endloop
endfacet
facet normal -0.024541 -0.999699 0.000000
 outer loop
  vertex -0.124632 -2.536940 0.000000
  vertex -0.000000 -2.540000 0.000000
  vertex -0.000000 -2.540000 43.180000
 endloop
endfacet
facet normal -0.024541 -0.999699 0.000000
 outer loop
  vertex -0.124632 -2.536940 0.000000
  vertex -0.000000 -2.540000 43.180000
  vertex -0.124632 -2.536940 43.180000
 endloop
endfacet
facet normal 0.000000 0.000000 1.000000
 outer loop
  vertex 0.000000 0.000000 43.180000
  vertex -0.124632 -2.536940 43.180000
  vertex -0.000000 -2.540000 43.180000
 endloop
endfacet
facet normal 0.000000 0.000000 -1.000000
 outer loop
  vertex 0.000000 0.000000 0.000000
  vertex -0.000000 -2.540000 0.000000
  vertex -0.124632 -2.536940 0.000000
 endloop
endfacet
facet normal 0.024541 -0.999699 0.000000
 outer loop
  vertex -0.000000 -2.540000 0.000000
  vertex 0.124632 -2.536940 0.000000
  vertex 0.124632 -2.536940 43.180000
 endloop
endfacet
facet normal 0.024541 -0.999699 0.000000
 outer loop
  vertex -0.000000 -2.540000 0.000000
  vertex 0.124632 -2.536940 43.180000
  vertex -0.000000 -2.540000 43.180000
 endloop
endfacet
facet normal 0.000000 0.000000 1.000000
 outer loop
  vertex 0.000000 0.000000 43.180000
  vertex -0.000000 -2.540000 43.180000
  vertex 0.124632 -2.536940 43.180000
 endloop
endfacet
facet normal 0.000000 -0.000000 -1.000000
 outer loop
  vertex 0.000000 0.000000 0.000000
  vertex 0.124632 -2.536940 0.000000
  vertex -0.000000 -2.540000 0.000000
 endloop
endfacet
facet normal 0.073565 -0.997290 0.000000
 outer loop
  vertex 0.124632 -2.536940 0.000000
  vertex 0.248964 -2.527769 0.000000
  vertex 0.248964 -2.527769 43.180000
 endloop
endfacet
facet normal 0.073565 -0.997290 0.000000
 outer loop
  vertex 0.124632 -2.536940 0.000000
  vertex 0.248964 -2.527769 43.180000
  vertex 0.124632 -2.536940 43.180000
 endloop
endfacet
facet normal 0.000000 0.000000 1.000000
 outer loop
  vertex 0.000000 0.000000 43.180000
  vertex 0.124632 -2.536940 43.180000
  vertex 0.248964 -2.527769 43.180000
 endloop
endfacet
facet normal 0.000000 0.000000 -1.000000
 outer loop
  vertex 0.000000 0.000000 0.000000
  vertex 0.248964 -2.527769 0.000000
  vertex 0.124632 -2.536940 0.000000
 endloop
endfacet
facet normal 0.122411 -0.992480 0.000000
 outer loop
  vertex 0.248964 -2.527769 0.000000
  vertex 0.372695 -2.512508 0.000000
  vertex 0.372695 -2.512508 43.180000
 endloop
endfacet
facet normal 0.122411 -0.992480 0.000000
 outer loop
  vertex 0.248964 -2.527769 0.000000
  vertex 0.372695 -2.512508 43.180000
  vertex 0.248964 -2.527769 43.180000
 endloop
endfacet
facet normal 0.000000 0.000000 1.000000
 outer loop
  vertex 0.000000 0.000000 43.180000
  vertex 0.248964 -2.527769 43.180000
  vertex 0.372695 -2.512508 43.180000
 endloop
endfacet
facet normal 0.000000 0.000000 -1.000000
 outer loop
  vertex 0.000000 0.000000 0.000000
  vertex 0.372695 -2.512508 0.000000
  vertex 0.248964 -2.527769 0.000000
 endloop
endfacet
facet normal 0.170962 -0.985278 0.000000
 outer loop
  vertex 0.372695 -2.512508 0.000000
  vertex 0.495529 -2.491195 0.000000
  vertex 0.495529 -2.491195 43.180000
 endloop
endfacet
facet normal 0.170962 -0.985278 0.000000
 outer loop
  vertex 0.372695 -2.512508 0.000000
  vertex 0.495529 -2.491195 43.180000
  vertex 0.372695 -2.512508 43.180000
 endloop
endfacet
facet normal 0.000000 0.000000 1.000000
 outer loop
  vertex 0.000000 0.000000 43.180000
  vertex 0.372695 -2.512508 43.180000
  vertex 0.495529 -2.491195 43.180000
 endloop
endfacet
facet normal 0.000000 0.000000 -1.000000
 outer loop
  vertex 0.000000 0.000000 0.000000
  vertex 0.495529 -2.491195 0.000000
  vertex 0.372695 -2.512508 0.000000
 endloop
endfacet
facet normal 0.219101 -0.975702 0.000000
 outer loop
  vertex 0.495529 -2.491195 0.000000
  vertex 0.617170 -2.463879 0.000000
  vertex 0.617170 -2.463879 43.180000
 endloop
endfacet
facet normal 0.219101 -0.975702 0.000000
 outer loop
  vertex 0.495529 -2.491195 0.000000
  vertex 0.617170 -2.463879 43.180000
  vertex 0.495529 -2.491195 43.180000
 endloop
endfacet
facet normal 0.000000 0.000000 1.000000
 outer loop
  vertex 0.000000 0.000000 43.180000
  vertex 0.495529 -2.491195 43.180000
  vertex 0.617170 -2.463879 43.180000
 endloop
endfacet
facet normal 0.000000 0.000000 -1.000000
 outer loop
  vertex 0.000000 0.000000 0.000000
  vertex 0.617170 -2.463879 0.000000
  vertex 0.495529 -2.491195 0.000000
 endloop
endfacet
facet normal 0.266713 -0.963776 0.000000
 outer loop
  vertex 0.617170 -2.463879 0.000000
  vertex 0.737323 -2.430628 0.000000
  vertex 0.737323 -2.430628 43.180000
 endloop
endfacet
facet normal 0.266713 -0.963776 0.000000
 outer loop
  vertex 0.617170 -2.463879 0.000000
  vertex 0.737323 -2.430628 43.180000
  vertex 0.617170 -2.463879 43.180000
 endloop
endfacet
facet normal 0.000000 0.000000 1.000000
 outer loop
  vertex 0.000000 0.000000 43.180000
  vertex 0.617170 -2.463879 43.180000
  vertex 0.737323 -2.430628 43.180000
 endloop
endfacet
facet normal 0.000000 0.000000 -1.000000
 outer loop
  vertex 0.000000 0.000000 0.000000
  vertex 0.737323 -2.430628 0.000000
  vertex 0.617170 -2.463879 0.000000
 endloop
endfacet
facet normal 0.313682 -0.949528 0.000000
 outer loop
  vertex 0.737323 -2.430628 0.000000
  vertex 0.855700 -2.391522 0.000000
  vertex 0.855700 -2.391522 43.180000
 endloop
endfacet
facet normal 0.313682 -0.949528 0.000000
 outer loop
  vertex 0.737323 -2.430628 0.000000
  vertex 0.855700 -2.391522 43.180000
  vertex 0.737323 -2.430628 43.180000
 endloop
endfacet
facet normal 0.000000 0.000000 1.000000
 outer loop
  vertex 0.000000 0.000000 43.180000
  vertex 0.737323 -2.430628 43.180000
  vertex 0.855700 -2.391522 43.180000
 endloop
endfacet
facet normal 0.000000 0.000000 -1.000000
 outer loop
  vertex 0.000000 0.000000 0.000000
  vertex 0.855700 -2.391522 0.000000
  vertex 0.737323 -2.430628 0.000000
 endloop
endfacet
facet normal 0.359895 -0.932993 0.000000
 outer loop
  vertex 0.855700 -2.391522 0.000000
  vertex 0.972016 -2.346654 0.000000
  vertex 0.972016 -2.346654 43.180000
 endloop
endfacet
facet normal 0.359895 -0.932993 0.000000
 outer loop
  vertex 0.855700 -2.391522 0.000000
  vertex 0.972016 -2.346654 43.180000
  vertex 0.855700 -2.391522 43.180000
 endloop
endfacet
facet normal 0.000000 0.000000 1.000000
 outer loop
  vertex 0.000000 0.000000 43.180000
  vertex 0.855700 -2.391522 43.180000
  vertex 0.972016 -2.346654 43.180000
 endloop
endfacet
facet normal 0.000000 0.000000 -1.000000
 outer loop
  vertex 0.000000 0.000000 0.000000
  vertex 0.972016 -2.346654 0.000000
  vertex 0.855700 -2.391522 0.000000
 endloop
endfacet
facet normal 0.405241 -0.914210 0.000000
 outer loop
  vertex 0.972016 -2.346654 0.000000
  vertex 1.085990 -2.296133 0.000000
  vertex 1.085990 -2.296133 43.180000
 endloop
endfacet
facet normal 0.405241 -0.914210 0.000000
 outer loop
  vertex 0.972016 -2.346654 0.000000
  vertex 1.085990 -2.296133 43.180000
  vertex 0.972016 -2.346654 43.180000
 endloop
endfacet
facet normal 0.000000 0.000000 1.000000
 outer loop
  vertex 0.000000 0.000000 43.180000
  vertex 0.972016 -2.346654 43.180000
  vertex 1.085990 -2.296133 43.180000
 endloop
endfacet
facet normal 0.000000 0.000000 -1.000000
 outer loop
  vertex 0.000000 0.000000 0.000000
  vertex 1.085990 -2.296133 0.000000
  vertex 0.972016 -2.346654 0.000000
 endloop
endfacet
facet normal 0.449611 -0.893224 0.000000
 outer loop
  vertex 1.085990 -2.296133 0.000000
  vertex 1.197348 -2.240080 0.000000
  vertex 1.197348 -2.240080 43.180000
 endloop
endfacet
facet normal 0.449611 -0.893224 0.000000
 outer loop
  vertex 1.085990 -2.296133 0.000000
  vertex 1.197348 -2.240080 43.180000
  vertex 1.085990 -2.296133 43.180000
 endloop
endfacet
facet normal 0.000000 0.000000 1.000000
 outer loop
  vertex 0.000000 0.000000 43.180000
  vertex 1.085990 -2.296133 43.180000
  vertex 1.197348 -2.240080 43.180000
 endloop
endfacet
facet normal 0.000000 0.000000 -1.000000
 outer loop
  vertex 0.000000 0.000000 0.000000
  vertex 1.197348 -2.240080 0.000000
  vertex 1.085990 -2.296133 0.000000
 endloop
endfacet
facet normal 0.492898 -0.870087 0.000000
 outer loop
  vertex 1.197348 -2.240080 0.000000
  vertex 1.305821 -2.178631 0.000000
  vertex 1.305821 -2.178631 43.180000
 endloop
endfacet
facet normal 0.492898 -0.870087 0.000000
 outer loop
  vertex 1.197348 -2.240080 0.000000
  vertex 1.305821 -2.178631 43.180000
  vertex 1.197348 -2.240080 43.180000
 endloop
endfacet
facet normal 0.000000 0.000000 1.000000
 outer loop
  vertex 0.000000 0.000000 43.180000
  vertex 1.197348 -2.240080 43.180000
  vertex 1.305821 -2.178631 43.180000
 endloop
endfacet
facet normal 0.000000 0.000000 -1.000000
 outer loop
  vertex 0.000000 0.000000 0.000000
  vertex 1.305821 -2.178631 0.000000
  vertex 1.197348 -2.240080 0.000000
 endloop
endfacet
facet normal 0.534998 -0.844854 0.000000
 outer loop
  vertex 1.305821 -2.178631 0.000000
  vertex 1.411148 -2.111933 0.000000
  vertex 1.411148 -2.111933 43.180000
 endloop
endfacet
facet normal 0.534998 -0.844854 0.000000
 outer loop
  vertex 1.305821 -2.178631 0.000000
  vertex 1.411148 -2.111933 43.180000
  vertex 1.305821 -2.178631 43.180000
 endloop
endfacet
facet normal 0.000000 0.000000 1.000000
 outer loop
  vertex 0.000000 0.000000 43.180000
  vertex 1.305821 -2.178631 43.180000
  vertex 1.411148 -2.111933 43.180000
 endloop
endfacet
facet normal 0.000000 0.000000 -1.000000
 outer loop
  vertex 0.000000 0.000000 0.000000
  vertex 1.411148 -2.111933 0.000000
  vertex 1.305821 -2.178631 0.000000
 endloop
endfacet
facet normal 0.575808 -0.817585 0.000000
 outer loop
  vertex 1.411148 -2.111933 0.000000
  vertex 1.513076 -2.040147 0.000000
  vertex 1.513076 -2.040147 43.180000
 endloop
endfacet
facet normal 0.575808 -0.817585 0.000000
 outer loop
  vertex 1.411148 -2.111933 0.000000
  vertex 1.513076 -2.040147 43.180000
  vertex 1.411148 -2.111933 43.180000
 endloop
endfacet
facet normal 0.000000 0.000000 1.000000
 outer loop
  vertex 0.000000 0.000000 43.180000
  vertex 1.411148 -2.111933 43.180000
  vertex 1.513076 -2.040147 43.180000
 endloop
endfacet
facet normal 0.000000 0.000000 -1.000000
 outer loop
  vertex 0.000000 0.000000 0.000000
  vertex 1.513076 -2.040147 0.000000
  vertex 1.411148 -2.111933 0.000000
 endloop
endfacet
facet normal 0.615232 -0.788346 0.000000
 outer loop
  vertex 1.513076 -2.040147 0.000000
  vertex 1.611359 -1.963447 0.000000
  vertex 1.611359 -1.963447 43.180000
 endloop
endfacet
facet normal 0.615232 -0.788346 0.000000
 outer loop
  vertex 1.513076 -2.040147 0.000000
  vertex 1.611359 -1.963447 43.180000
  vertex 1.513076 -2.040147 43.180000
 endloop
endfacet
facet normal 0.000000 0.000000 1.000000
 outer loop
  vertex 0.000000 0.000000 43.180000
  vertex 1.513076 -2.040147 43.180000
  vertex 1.611359 -1.963447 43.180000
 endloop
endfacet
facet normal 0.000000 0.000000 -1.000000
 outer loop
  vertex 0.000000 0.000000 0.000000
  vertex 1.611359 -1.963447 0.000000
  vertex 1.513076 -2.040147 0.000000
 endloop
endfacet
facet normal 0.653173 -0.757209 0.000000
 outer loop
  vertex 1.611359 -1.963447 0.000000
  vertex 1.705760 -1.882016 0.000000
  vertex 1.705760 -1.882016 43.180000
 endloop
endfacet
facet normal 0.653173 -0.757209 0.000000
 outer loop
  vertex 1.611359 -1.963447 0.000000
  vertex 1.705760 -1.882016 43.180000
  vertex 1.611359 -1.963447 43.180000
 endloop
endfacet
facet normal 0.000000 0.000000 1.000000
 outer loop
  vertex 0.000000 0.000000 43.180000
  vertex 1.611359 -1.963447 43.180000
  vertex 1.705760 -1.882016 43.180000
 endloop
endfacet
facet normal 0.000000 0.000000 -1.000000
 outer loop
  vertex 0.000000 0.000000 0.000000
  vertex 1.705760 -1.882016 0.000000
  vertex 1.611359 -1.963447 0.000000
 endloop
endfacet
facet normal 0.689541 -0.724247 0.000000
 outer loop
  vertex 1.705760 -1.882016 0.000000
  vertex 1.796051 -1.796051 0.000000
  vertex 1.796051 -1.796051 43.180000
 endloop
endfacet
facet normal 0.689541 -0.724247 0.000000
 outer loop
  vertex 1.705760 -1.882016 0.000000
  vertex 1.796051 -1.796051 43.180000
  vertex 1.705760 -1.882016 43.180000
 endloop
endfacet
facet normal 0.000000 0.000000 1.000000
 outer loop
  vertex 0.000000 0.000000 43.180000
  vertex 1.705760 -1.882016 43.180000
  vertex 1.796051 -1.796051 43.180000
 endloop
endfacet
facet normal 0.000000 0.000000 -1.000000
 outer loop
  vertex 0.000000 0.000000 0.000000
  vertex 1.796051 -1.796051 0.000000
  vertex 1.705760 -1.882016 0.000000
 endloop
endfacet
facet normal 0.724247 -0.689541 0.000000
 outer loop
  vertex 1.796051 -1.796051 0.000000
  vertex 1.882016 -1.705760 0.000000
  vertex 1.882016 -1.705760 43.180000
 endloop
endfacet
facet normal 0.724247 -0.689541 0.000000
 outer loop
  vertex 1.796051 -1.796051 0.000000
  vertex 1.882016 -1.705760 43.180000
  vertex 1.796051 -1.796051 43.180000
 endloop
endfacet
facet normal 0.000000 0.000000 1.000000
 outer loop
  vertex 0.000000 0.000000 43.180000
  vertex 1.796051 -1.796051 43.180000
  vertex 1.882016 -1.705760 43.180000
 endloop
endfacet
facet normal 0.000000 0.000000 -1.000000
 outer loop
  vertex 0.000000 0.000000 0.000000
  vertex 1.882016 -1.705760 0.000000
  vertex 1.796051 -1.796051 0.000000
 endloop
endfacet
facet normal 0.757209 -0.653173 0.000000
 outer loop
  vertex 1.882016 -1.705760 0.000000
  vertex 1.963447 -1.611359 0.000000
  vertex 1.963447 -1.611359 43.180000
 endloop
endfacet
facet normal 0.757209 -0.653173 0.000000
 outer loop
  vertex 1.882016 -1.705760 0.000000
  vertex 1.963447 -1.611359 43.180000
  vertex 1.882016 -1.705760 43.180000
 endloop
endfacet
facet normal 0.000000 0.000000 1.000000
 outer loop
  vertex 0.000000 0.000000 43.180000
  vertex 1.882016 -1.705760 43.180000
  vertex 1.963447 -1.611359 43.180000
 endloop
endfacet
facet normal 0.000000 0.000000 -1.000000
 outer loop
  vertex 0.000000 0.000000 0.000000
  vertex 1.963447 -1.611359 0.000000
  vertex 1.882016 -1.705760 0.000000
 endloop
endfacet
facet normal 0.788346 -0.615232 0.000000
 outer loop
  vertex 1.963447 -1.611359 0.000000
  vertex 2.040147 -1.513076 0.000000
  vertex 2.040147 -1.513076 43.180000
 endloop
endfacet
facet normal 0.788346 -0.615232 0.000000
 outer loop
  vertex 1.963447 -1.611359 0.000000
  vertex 2.040147 -1.513076 43.180000
  vertex 1.963447 -1.611359 43.180000
 endloop
endfacet
facet normal 0.000000 0.000000 1.000000
 outer loop
  vertex 0.000000 0.000000 43.180000
  vertex 1.963447 -1.611359 43.180000
  vertex 2.040147 -1.513076 43.180000
 endloop
endfacet
facet normal 0.000000 0.000000 -1.000000
 outer loop
  vertex 0.000000 0.000000 0.000000
  vertex 2.040147 -1.513076 0.000000
  vertex 1.963447 -1.611359 0.000000
 endloop
endfacet
facet normal 0.817585 -0.575808 0.000000
 outer loop
  vertex 2.040147 -1.513076 0.000000
  vertex 2.111933 -1.411148 0.000000
  vertex 2.111933 -1.411148 43.180000
 endloop
endfacet
facet normal 0.817585 -0.575808 0.000000
 outer loop
  vertex 2.040147 -1.513076 0.000000
  vertex 2.111933 -1.411148 43.180000
  vertex 2.040147 -1.513076 43.180000
 endloop
endfacet
facet normal 0.000000 0.000000 1.000000
 outer loop
  vertex 0.000000 0.000000 43.180000
  vertex 2.040147 -1.513076 43.180000
  vertex 2.111933 -1.411148 43.180000
 endloop
endfacet
facet normal 0.000000 0.000000 -1.000000
 outer loop
  vertex 0.000000 0.000000 0.000000
  vertex 2.111933 -1.411148 0.000000
  vertex 2.040147 -1.513076 0.000000
 endloop
endfacet
facet normal 0.844854 -0.534998 0.000000
 outer loop
  vertex 2.111933 -1.411148 0.000000
  vertex 2.178631 -1.305821 0.000000
  vertex 2.178631 -1.305821 43.180000
 endloop
endfacet
facet normal 0.844854 -0.534998 0.000000
 outer loop
  vertex 2.111933 -1.411148 0.000000
  vertex 2.178631 -1.305821 43.180000
  vertex 2.111933 -1.411148 43.180000
 endloop
endfacet
facet normal 0.000000 0.000000 1.000000
 outer loop
  vertex 0.000000 0.000000 43.180000
  vertex 2.111933 -1.411148 43.180000
  vertex 2.178631 -1.305821 43.180000
 endloop
endfacet
facet normal 0.000000 0.000000 -1.000000
 outer loop
  vertex 0.000000 0.000000 0.000000
  vertex 2.178631 -1.305821 0.000000
  vertex 2.111933 -1.411148 0.000000
 endloop
endfacet
facet normal 0.870087 -0.492898 0.000000
 outer loop
  vertex 2.178631 -1.305821 0.000000
  vertex 2.240080 -1.197348 0.000000
  vertex 2.240080 -1.197348 43.180000
 endloop
endfacet
facet normal 0.870087 -0.492898 0.000000
 outer loop
  vertex 2.178631 -1.305821 0.000000
  vertex 2.240080 -1.197348 43.180000
  vertex 2.178631 -1.305821 43.180000
 endloop
endfacet
facet normal 0.000000 0.000000 1.000000
 outer loop
  vertex 0.000000 0.000000 43.180000
  vertex 2.178631 -1.305821 43.180000
  vertex 2.240080 -1.197348 43.180000
 endloop
endfacet
facet normal 0.000000 0.000000 -1.000000
 outer loop
  vertex 0.000000 0.000000 0.000000
  vertex 2.240080 -1.197348 0.000000
  vertex 2.178631 -1.305821 0.000000
 endloop
endfacet
facet normal 0.893224 -0.449611 0.000000
 outer loop
  vertex 2.240080 -1.197348 0.000000
  vertex 2.296133 -1.085990 0.000000
  vertex 2.296133 -1.085990 43.180000
 endloop
endfacet
facet normal 0.893224 -0.449611 0.000000
 outer loop
  vertex 2.240080 -1.197348 0.000000
  vertex 2.296133 -1.085990 43.180000
  vertex 2.240080 -1.197348 43.180000
 endloop
endfacet
facet normal 0.000000 0.000000 1.000000
 outer loop
  vertex 0.000000 0.000000 43.180000
  vertex 2.240080 -1.197348 43.180000
  vertex 2.296133 -1.085990 43.180000
 endloop
endfacet
facet normal 0.000000 0.000000 -1.000000
 outer loop
  vertex 0.000000 0.000000 0.000000
  vertex 2.296133 -1.085990 0.000000
  vertex 2.240080 -1.197348 0.000000
 endloop
endfacet
facet normal 0.914210 -0.405241 0.000000
 outer loop
  vertex 2.296133 -1.085990 0.000000
  vertex 2.346654 -0.972016 0.000000
  vertex 2.346654 -0.972016 43.180000
 endloop
endfacet
facet normal 0.914210 -0.405241 0.000000
 outer loop
  vertex 2.296133 -1.085990 0.000000
  vertex 2.346654 -0.972016 43.180000
  vertex 2.296133 -1.085990 43.180000
 endloop
endfacet
facet normal 0.000000 0.000000 1.000000
 outer loop
  vertex 0.000000 0.000000 43.180000
  vertex 2.296133 -1.085990 43.180000
  vertex 2.346654 -0.972016 43.180000
 endloop
endfacet
facet normal 0.000000 0.000000 -1.000000
 outer loop
  vertex 0.000000 0.000000 0.000000
  vertex 2.346654 -0.972016 0.000000
  vertex 2.296133 -1.085990 0.000000
 endloop
endfacet
facet normal 0.932993 -0.359895 0.000000
 outer loop
  vertex 2.346654 -0.972016 0.000000
  vertex 2.391522 -0.855700 0.000000
  vertex 2.391522 -0.855700 43.180000
 endloop
endfacet
facet normal 0.932993 -0.359895 0.000000
 outer loop
  vertex 2.346654 -0.972016 0.000000
  vertex 2.391522 -0.855700 43.180000
  vertex 2.346654 -0.972016 43.180000
 endloop
endfacet
facet normal 0.000000 0.000000 1.000000
 outer loop
  vertex 0.000000 0.000000 43.180000
  vertex 2.346654 -0.972016 43.180000
  vertex 2.391522 -0.855700 43.180000
 endloop
endfacet
facet normal 0.000000 0.000000 -1.000000
 outer loop
  vertex 0.000000 0.000000 0.000000
  vertex 2.391522 -0.855700 0.000000
  vertex 2.346654 -0.972016 0.000000
 endloop
endfacet
facet normal 0.949528 -0.313682 0.000000
 outer loop
  vertex 2.391522 -0.855700 0.000000
  vertex 2.430628 -0.737323 0.000000
  vertex 2.430628 -0.737323 43.180000
 endloop
endfacet
facet normal 0.949528 -0.313682 0.000000
 outer loop
  vertex 2.391522 -0.855700 0.000000
  vertex 2.430628 -0.737323 43.180000
  vertex 2.391522 -0.855700 43.180000
 endloop
endfacet
facet normal 0.000000 0.000000 1.000000
 outer loop
  vertex 0.000000 0.000000 43.180000
  vertex 2.391522 -0.855700 43.180000
  vertex 2.430628 -0.737323 43.180000
 endloop
endfacet
facet normal 0.000000 0.000000 -1.000000
 outer loop
  vertex 0.000000 0.000000 0.000000
  vertex 2.430628 -0.737323 0.000000
  vertex 2.391522 -0.855700 0.000000
 endloop
endfacet
facet normal 0.963776 -0.266713 0.000000
 outer loop
  vertex 2.430628 -0.737323 0.000000
  vertex 2.463879 -0.617170 0.000000
  vertex 2.463879 -0.617170 43.180000
 endloop
endfacet
facet normal 0.963776 -0.266713 0.000000
 outer loop
  vertex 2.430628 -0.737323 0.000000
  vertex 2.463879 -0.617170 43.180000
  vertex 2.430628 -0.737323 43.180000
 endloop
endfacet
facet normal 0.000000 0.000000 1.000000
 outer loop
  vertex 0.000000 0.000000 43.180000
  vertex 2.430628 -0.737323 43.180000
  vertex 2.463879 -0.617170 43.180000
 endloop
endfacet
facet normal 0.000000 0.000000 -1.000000
 outer loop
  vertex 0.000000 0.000000 0.000000
  vertex 2.463879 -0.617170 0.000000
  vertex 2.430628 -0.737323 0.000000
 endloop
endfacet
facet normal 0.975702 -0.219101 0.000000
 outer loop
  vertex 2.463879 -0.617170 0.000000
  vertex 2.491195 -0.495529 0.000000
  vertex 2.491195 -0.495529 43.180000
 endloop
endfacet
facet normal 0.975702 -0.219101 0.000000
 outer loop
  vertex 2.463879 -0.617170 0.000000
  vertex 2.491195 -0.495529 43.180000
  vertex 2.463879 -0.617170 43.180000
 endloop
endfacet
facet normal 0.000000 0.000000 1.000000
 outer loop
  vertex 0.000000 0.000000 43.180000
  vertex 2.463879 -0.617170 43.180000
  vertex 2.491195 -0.495529 43.180000
 endloop
endfacet
facet normal 0.000000 0.000000 -1.000000
 outer loop
  vertex 0.000000 0.000000 0.000000
  vertex 2.491195 -0.495529 0.000000
  vertex 2.463879 -0.617170 0.000000
 endloop
endfacet
facet normal 0.985278 -0.170962 0.000000
 outer loop
  vertex 2.491195 -0.495529 0.000000
  vertex 2.512508 -0.372695 0.000000
  vertex 2.512508 -0.372695 43.180000
 endloop
endfacet
facet normal 0.985278 -0.170962 0.000000
 outer loop
  vertex 2.491195 -0.495529 0.000000
  vertex 2.512508 -0.372695 43.180000
  vertex 2.491195 -0.495529 43.180000
 endloop
endfacet
facet normal 0.000000 0.000000 1.000000
 outer loop
  vertex 0.000000 0.000000 43.180000
  vertex 2.491195 -0.495529 43.180000
  vertex 2.512508 -0.372695 43.180000
 endloop
endfacet
facet normal 0.000000 0.000000 -1.000000
 outer loop
  vertex 0.000000 0.000000 0.000000
  vertex 2.512508 -0.372695 0.000000
  vertex 2.491195 -0.495529 0.000000
 endloop
endfacet
facet normal 0.992480 -0.122411 0.000000
 outer loop
  vertex 2.512508 -0.372695 0.000000
  vertex 2.527769 -0.248964 0.000000
  vertex 2.527769 -0.248964 43.180000
 endloop
endfacet
facet normal 0.992480 -0.122411 0.000000
 outer loop
  vertex 2.512508 -0.372695 0.000000
  vertex 2.527769 -0.248964 43.180000
  vertex 2.512508 -0.372695 43.180000
 endloop
endfacet
facet normal 0.000000 0.000000 1.000000
 outer loop
  vertex 0.000000 0.000000 43.180000
  vertex 2.512508 -0.372695 43.180000
  vertex 2.527769 -0.248964 43.180000
 endloop
endfacet
facet normal 0.000000 0.000000 -1.000000
 outer loop
  vertex 0.000000 0.000000 0.000000
  vertex 2.527769 -0.248964 0.000000
  vertex 2.512508 -0.372695 0.000000
 endloop
endfacet
facet normal 0.997290 -0.073565 0.000000
 outer loop
  vertex 2.527769 -0.248964 0.000000
  vertex 2.536940 -0.124632 0.000000
  vertex 2.536940 -0.124632 43.180000
 endloop
endfacet
facet normal 0.997290 -0.073565 0.000000
 outer loop
  vertex 2.527769 -0.248964 0.000000
  vertex 2.536940 -0.124632 43.180000
  vertex 2.527769 -0.248964 43.180000
 endloop
endfacet
facet normal 0.000000 0.000000 1.000000
 outer loop
  vertex 0.000000 0.000000 43.180000
  vertex 2.527769 -0.248964 43.180000
  vertex 2.536940 -0.124632 43.180000
 endloop
endfacet
facet normal 0.000000 0.000000 -1.000000
 outer loop
  vertex 0.000000 0.000000 0.000000
  vertex 2.536940 -0.124632 0.000000
  vertex 2.527769 -0.248964 0.000000
 endloop
endfacet
facet normal 0.999699 -0.024541 0.000000
 outer loop
  vertex 2.536940 -0.124632 0.000000
  vertex 2.540000 -0.000000 0.000000
  vertex 2.540000 -0.000000 43.180000
 endloop
endfacet
facet normal 0.999699 -0.024541 0.000000
 outer loop
  vertex 2.536940 -0.124632 0.000000
  vertex 2.540000 -0.000000 43.180000
  vertex 2.536940 -0.124632 43.180000
 endloop
endfacet
facet normal 0.000000 0.000000 1.000000
 outer loop
  vertex 0.000000 0.000000 43.180000
  vertex 2.536940 -0.124632 43.180000
  vertex 2.540000 -0.000000 43.180000
 endloop
endfacet
facet normal 0.000000 0.000000 -1.000000
 outer loop
  vertex 0.000000 0.000000 0.000000
  vertex 2.540000 -0.000000 0.000000
  vertex 2.536940 -0.124632 0.000000
 endloop
endfacet
endsolid cylinder
